<?xml version="1.0" encoding="UTF-8"?>
<!-- Created with Inkscape (http://www.inkscape.org/) -->
<svg width="325" height="295" shape-rendering="crispEdges" version="1.1" viewBox="0 0 85.99 78.052" xmlns="http://www.w3.org/2000/svg">
 <path transform="scale(.26458)" d="m10 0-10 10v275l10 10h305l10-10v-275l-10-10h-305z" fill="#6b6b5c" stroke-width="0"/>
 <g>
  <g>
   <path d="m62.177 7.9375v1.3229h1.3229v-1.3229zm1.3229 1.3229v2.6458h1.3229v-2.6458zm1.3229 2.6458v1.3229h1.3229v-1.3229zm1.3229 1.3229v2.6458h1.3229v-2.6458zm1.3229 2.6458v1.3229h1.3229v-1.3229zm1.3229 1.3229v2.6458h1.3229v-2.6458zm1.3229 2.6458v1.3229h1.3229v-1.3229zm1.3229 1.3229v2.6458h1.3229v-2.6458z" fill="#363633" stroke-width=".26458"/>
   <path transform="scale(.26458)" d="m235 25v5h5v-5h-5zm0 5h-5v5h5v-5zm-5 5h-5v5 5 5h5v-5-5-5zm-5 15h-5v5 5h5v-5-5z" fill="#141414"/>
   <path transform="scale(.26458)" d="m230 10v5h5 5v-5h-5-5zm10 5v5 5h5v-5-5h-5zm-10 0h-5v5h5v-5zm-5 5h-5v5h5v-5zm-5 5h-5-5-5v5h5 5 5v-5zm-15 5h-10v5h10v-5zm-10 5h-5v5h5v-5zm0 5v5h10v-5h-10zm10 5v5h5v-5h-5zm5 5v10h5v-10h-5zm5 10v5h5v-5h-5zm0 5h-15v5h15v-5zm-15 0v-5h-5v5h5zm-5-5v-5h-5v5h5zm-5-5v-5-10h-5v10 5h5z"/>
   <g stroke-width=".26458">
    <rect x="63.5" y="-6.6146" width="0" height="4.8456e-7" fill="#a40"/>
    <path d="m72.76 25.135v15.875h-3.9688v1.3229h5.2917v-17.198z" fill="#363633"/>
    <rect x="68.792" y="42.333" width="6.6146" height="1.3229"/>
    <path d="m74.083 25.135v17.198h5.2917v-1.3229h-3.9688v-15.875z" fill="#1c1c1c"/>
    <rect x="75.406" y="42.333" width="3.9688" height="1.3229" fill="#483737"/>
    <path d="m63.5 7.9375v1.3229h1.3229v-1.3229zm1.3229 1.3229v2.6458h1.3229v-2.6458zm1.3229 2.6458v1.3229h1.3229v-1.3229zm1.3229 1.3229v2.6458h1.3229v-2.6458zm1.3229 2.6458v1.3229h1.3229v-1.3229zm1.3229 1.3229v2.6458h1.3229v-2.6458zm1.3229 2.6458v1.3229h1.3229v-1.3229zm1.3229 1.3229v2.6458h1.3229v-2.6458z" fill="#1c1c1c"/>
    <rect x="72.76" y="23.813" width="4.8127e-13" height="3.9688"/>
    <rect x="72.76" y="23.813" width="1.3229" height="1.3229" fill="#823d00"/>
    <rect x="74.083" y="23.813" width="1.3229" height="1.3229" fill="#732e00"/>
   </g>
  </g>
  <g fill="#483737" stroke-width=".26458">
   <path d="m60.854 3.9688v1.3229h-1.3229v1.3229h-1.3229v1.3229h-3.9688v3.9688h2.6458v3.9688h1.3229v-2.6458h1.3229v-3.9688h1.3229v-1.3229h1.3229v-1.3229h1.3229v-2.6458z"/>
   <rect x="55.562" y="11.906" width="1.3229" height="1.3229"/>
   <rect x="51.594" y="9.2604" width="2.6458" height="1.3229"/>
  </g>
  <g>
   <g stroke-width=".26458">
    <path d="m54.24 7.9375v1.3229h-2.6458v1.3229h2.6458v1.3229h1.3229v-2.6458h1.3229v-1.3229zm1.3229 3.9688v1.3229h1.3229v-1.3229z" fill="#303030"/>
    <path d="m50.271 10.583v0.65009 2.6686 0.65009h1.3229v0.67283 0.65009h1.3229v0.65009 0.02274 0.65009h3.9688v-0.65009-0.02274-0.65009h-1.3229v-1.9957-0.65009h-1.3229v-0.67283-0.65009h-2.6458v-0.67283-0.65009z" fill="#ffd99c"/>
    <path d="m52.917 11.906v2.6458h2.6458v-1.3229h-1.3229v-1.3229z" fill="#fffdcc"/>
   </g>
   <path transform="scale(.26458)" d="m40 210v5h-15v5h35.715 14.285v-2.5-2.5h5v-5h-30-5-5z" fill="#121296"/>
   <g stroke-width=".26458">
    <path d="m3.9687 30.427v1.3229h6.6146v-1.3229zm0 1.3229h-1.3229v18.521h1.3229v-15.875zm0 18.521v1.3229h7.9375v-1.3229h-5.2917z" fill="#1c1cd4"/>
    <rect x="3.9687" y="34.396" width="1.3229" height="1.3229" fill="#2424ff"/>
    <rect x="5.2917" y="34.396" width="1.3229" height="1.3229" fill="#2424ff"/>
    <path d="m3.9687 31.75v18.521h6.6146v-18.521z" fill="#7575a3"/>
    <rect x="7.9375" y="47.625" width="2.4064e-13" height="2.6458" fill="#3636e5"/>
    <rect x="7.9375" y="51.594" width="2.6458" height="3.9688"/>
   </g>
  </g>
  <rect x="5.2917" y="33.073" width="1.3229" height="1.3229" fill-opacity="0" stroke-width=".26458"/>
  <rect x="3.9687" y="33.073" width="1.3229" height="1.3229" fill-opacity="0" stroke-width=".26458"/>
  <path d="m6.6146 55.563c-3e-7 0 0 0.29501 0 0.66146s-3e-7 0.66146 0 0.66146h3.9687v-1.3229h-1.3229z" fill="#0f0f76" stroke-width=".37418"/>
  <rect x="22.49" y="56.885" width="2.6458" height="1.3229" fill-opacity="0" stroke-width=".26458"/>
  <g>
   <path transform="scale(.26458)" d="m90 210c-1e-6 0 0 1.115 0 2.5s-1e-6 2.5 0 2.5h-5v5h20v-5-2.5-2.5h-15z" fill="#121296" stroke-width="1.2247"/>
   <path transform="scale(.26458)" d="m60 225v2.5 2.5 2.5 7.5h-5v2.5 2.5 2.5 2.5h-25v2.084 0.83204 2.084 1.041 1.043 0.41602 2.5 2.5 2.5 2.5 2.5h-10v2.5 10 2.5h15v-2.5-10-2.5-2.5-2.5h5v-2.5-2.5h50v2.5 2.5h5v2.5 2.5 2.5 10 2.5h15v-2.5-10-2.5h-10v-2.5-2.5-2.5-2.5-2.5-2.5-2.084-0.83204-2.084h-25v-2.5-2.5h-5v-2.5-10-2.5-2.5-2.5h-10z"/>
   <rect x="18.521" y="63.5" width="1.3229" height="1.3229" rx="3.3842e-7" ry=".66146" stroke-width=".26458"/>
   <path d="m5.2917 56.885v2.6458h22.49v-1.3229h-21.167v-1.3229z" fill="#0f0f76" stroke-width=".29156"/>
   <g>
    <path transform="scale(.26458)" d="m15 150c-3e-6 0 0 1.115 0 2.5v35c0 1.385-3e-6 2.5 0 2.5h5 5c3e-6 0 0-1.115 0-2.5v-20c0-1.385 3e-6 -2.5 0-2.5h-5v-12.5c0-1.385 3e-6 -2.5 0-2.5h-5z" fill="#2323d2"/>
    <path transform="scale(.26458)" d="m15 135c-3e-6 0 0 1.115 0 2.5v10c0 1.385-3e-6 2.5 0 2.5h5v12.5c0 1.385-3e-6 2.5 0 2.5h5v12.5c0 1.385-3e-6 2.5 0 2.5h5c3e-6 0 0-1.115 0-2.5v-35c0-1.385 3e-6 -2.5 0-2.5h-5-5v-2.5c0-1.385 3e-6 -2.5 0-2.5h-5z" fill="#2d2ddc"/>
    <path transform="scale(.26458)" d="m15 125c-3e-6 0 0 1.115 0 2.5v5c0 1.385-3e-6 2.5 0 2.5h5v2.5c0 1.385-3e-6 2.5 0 2.5h5c3e-6 0 0-1.115 0-2.5v-5c0-1.385 3e-6 -2.5 0-2.5h-5v-2.5c0-1.385 3e-6 -2.5 0-2.5h-5z" fill="#3b3bdd"/>
   </g>
   <rect x="9.2604" y="42.333" width="1.3229" height="1.3229" rx="1.5765e-6" fill="#5c5cdb" stroke-width=".26458"/>
   <path transform="scale(.26458)" d="m35 165v5h-5v5 5h10v-5-10h-5z" fill="#5050d8"/>
   <rect x="6.6146" y="47.625" width="3.9688" height="2.6458" rx="1.5765e-6" fill="#3f3fd4" stroke-width="0"/>
   <rect x="7.9375" y="43.656" width="1.3229" height="1.3229" rx="1.5765e-6" fill="#5c5cdb" stroke-width=".26458"/>
   <rect x="7.9375" y="42.333" width="1.3229" height="1.3229" rx="1.5765e-6" fill="#8080a3" stroke-width=".26458"/>
   <path transform="scale(.26458)" d="m30 120v5 5h-5v10h5v25h5v-40h5v-5h-5-5z" fill="#6c6c8a"/>
  </g>
 </g>
 <g display="none">
  <g stroke-width=".26458">
   <rect x="17.198" y="23.812" width="1.3229" height="1.3229" rx="1.5765e-6" ry=".59358"/>
   <rect x="19.844" y="25.135" width="5.2917" height="2.6458" rx="1.5765e-6" ry=".59358" fill="#ffb5aa"/>
   <rect x="18.521" y="26.458" width="1.3229" height="2.6458" rx="1.5765e-6" ry=".59358" fill="#ffb5aa"/>
  </g>
  <g stroke-width=".26458">
   <rect x="23.812" y="27.781" width="2.6458" height="1.3229" rx="1.5765e-6" ry=".59358"/>
   <rect x="25.135" y="23.812" width="1.3229" height="3.9688" rx="1.5765e-6" ry=".59358"/>
   <rect x="19.844" y="23.812" width="5.2917" height="1.3229" rx="1.5765e-6" ry=".59358"/>
   <rect x="18.521" y="23.812" width="1.3229" height="2.6458" rx="1.9073e-6" ry=".59358"/>
   <rect x="17.198" y="25.135" width="1.3229" height="2.6458" rx="1.9073e-6" ry=".59358"/>
  </g>
  <g stroke-width=".26458">
   <rect x="19.844" y="26.458" width="3.9688" height="3.9688" rx="1.9073e-6" ry=".59358" fill="#ffb5aa"/>
   <rect x="23.812" y="27.781" width="2.6458" height="5.2917" rx="1.9073e-6" ry=".59358" fill="#ffb5aa"/>
   <rect x="26.458" y="26.458" width="1.3229" height="7.9375" rx="1.9073e-6" ry=".59358" fill="#fca"/>
   <rect x="27.781" y="27.781" width="2.6458" height="6.6146" rx="1.9073e-6" ry=".59358" fill="#fca"/>
  </g>
  <g fill="#ffb5aa" stroke-width=".26458">
   <rect x="18.521" y="27.781" width="1.3229" height="3.9688" rx="1.9073e-6" ry=".59358"/>
   <rect x="19.844" y="30.427" width="3.9688" height="3.9688" rx="1.9073e-6" ry=".59358"/>
   <rect x="23.812" y="33.073" width="2.6458" height="2.6458" rx="1.9073e-6" ry=".59358"/>
   <rect x="21.167" y="34.396" width="3.9688" height="1.3229" rx="1.9073e-6" ry=".59358"/>
  </g>
  <g stroke-width=".26458">
   <rect x="26.458" y="27.781" width="1.3229" height="2.6458" rx="1.9073e-6" ry=".59358"/>
   <rect x="27.781" y="27.781" width="1.3229" height="2.6458" rx="1.9073e-6"/>
   <rect x="29.104" y="26.458" width="1.3229" height="5.2917" rx="1.9073e-6"/>
   <rect x="30.427" y="26.458" width="1.3229" height="7.9375" rx="1.9073e-6"/>
   <rect x="31.75" y="26.458" width="1.3229" height="9.2604" rx="1.9073e-6"/>
   <rect x="33.073" y="26.458" width="1.3229" height="9.2604" rx="1.9073e-6"/>
   <rect x="37.042" y="27.781" width="1.3229" height="1.3229" rx="1.9073e-6" ry="1.3229"/>
   <rect x="27.781" y="29.104" width="1.3229" height="2.6458" rx="1.5765e-6" ry=".59358"/>
   <rect x="29.104" y="31.75" width="1.3229" height="3.9688" rx="1.9073e-6" ry=".59358"/>
  </g>
  <g stroke-width=".26458">
   <rect x="17.198" y="27.781" width="1.3229" height="2.6458" rx="1.9073e-6" ry=".59358" fill="#fca"/>
   <rect x="15.875" y="27.781" width="1.3229" height="2.6458" rx="1.9073e-6" ry=".59358" fill="#ffb07a"/>
   <rect x="17.198" y="29.104" width="1.3229" height="2.6458" rx="1.9073e-6" ry=".59358" fill="#fca"/>
   <rect x="21.167" y="35.719" width="5.2917" height="1.3229" rx="1.9073e-6" ry=".59358" fill="#ffb5aa"/>
   <rect x="27.781" y="34.396" width="1.3229" height="2.6458" rx="1.9073e-6" ry=".59358" fill="#fca"/>
   <rect x="15.875" y="30.427" width="1.3229" height="1.3229" rx="1.9073e-6" ry=".59358" fill="#ffb07a"/>
   <rect x="17.198" y="31.75" width="1.3229" height="2.6458" rx="1.9073e-6" ry=".59358" fill="#fca"/>
  </g>
  <g fill="#ffb5aa" stroke-width=".26458">
   <rect x="18.521" y="31.75" width="1.3229" height="3.9688" rx="1.9073e-6" ry=".59358"/>
   <rect x="19.844" y="34.396" width="1.3229" height="2.6458" rx="1.9073e-6" ry=".59358"/>
   <rect x="26.458" y="34.396" width="1.3229" height="2.6458" rx="1.9073e-6" ry=".59358"/>
  </g>
  <g fill="#fca" stroke-width=".26458">
   <rect x="29.104" y="35.719" width="2.6458" height="1.3229" rx="1.9073e-6" ry=".59358"/>
   <rect x="30.427" y="34.396" width="1.3229" height="1.3229" rx="1.9073e-6" ry=".59358"/>
   <rect x="31.75" y="35.719" width="2.6458" height="1.3229" rx="1.9073e-6" ry=".59358"/>
   <rect x="34.396" y="34.396" width="1.3229" height="2.6458" rx="1.9073e-6" ry=".59358"/>
  </g>
  <rect x="15.875" y="27.781" width="1.3229" height="1.3229" rx="1.9073e-6" ry=".59358" stroke-width=".26458"/>
  <rect x="21.167" y="37.042" width="3.9688" height="1.3229" rx="1.9073e-6" ry=".59358" fill="#ffb5aa" stroke-width=".26458"/>
  <g>
   <g stroke-width=".26458">
    <rect x="23.812" y="27.781" width="2.6458" height="1.3229" rx="1.9073e-6" ry=".59358"/>
    <rect x="26.458" y="26.458" width="1.3229" height="1.3229" rx="1.9073e-6" ry=".59358"/>
    <rect x="22.49" y="27.781" width="1.3229" height="1.3229" rx="1.9073e-6" ry=".59358"/>
    <rect x="26.458" y="30.427" width="1.3229" height="3.9688" rx="1.9073e-6" ry=".59358"/>
   </g>
   <rect x="27.781" y="31.75" width="1.3229" height="6.6146" rx="1.9073e-6" ry=".74198" stroke-width=".29581"/>
   <rect x="29.104" y="35.719" width="1.3229" height="3.9687" rx="1.9073e-6" ry="1.7807" stroke-width=".45827"/>
   <rect x="30.427" y="34.396" width="1.3229" height="3.9688" rx="1.9073e-6" ry=".59358" stroke-width=".26458"/>
   <rect x="31.75" y="35.719" width="2.6458" height="2.6458" rx="1.9073e-6" ry="1.1872" stroke-width=".37418"/>
   <rect x="34.396" y="34.396" width="1.3229" height="2.6458" rx="1.9073e-6" ry=".59358" stroke-width=".26458"/>
   <rect x="35.719" y="33.073" width="1.3229" height="1.3229" rx="1.9073e-6" ry=".59358" stroke-width=".26458"/>
  </g>
  <g stroke-width=".26458">
   <rect x="17.198" y="35.719" width="1.3229" height="1.3229" rx="1.9073e-6" ry=".59358" fill="#830000"/>
   <rect x="14.552" y="30.427" width="1.3229" height="1.3229" rx="1.9073e-6" ry=".59358" fill="#ffb07a"/>
   <rect x="25.135" y="37.042" width="2.6458" height="1.3229" rx="1.5765e-6" ry=".59358" fill="#ffb5aa"/>
  </g>
  <g fill="#ffb07a" stroke-width=".26458">
   <rect x="14.552" y="29.104" width="1.3229" height="1.3229" rx="1.9073e-6" ry=".59358"/>
   <rect x="14.552" y="31.75" width="2.6458" height="1.3229" rx="1.9073e-6" ry=".59358"/>
   <rect x="15.875" y="33.073" width="1.3229" height="2.6458" rx="1.9073e-6" ry=".59358"/>
   <rect x="17.198" y="34.396" width="1.3229" height="1.3229" rx="1.9073e-6" ry=".59358"/>
  </g>
  <g stroke-width="0">
   <rect x="18.521" y="35.719" width="1.3229" height="1.3229" rx="1.9073e-6" ry=".59358" fill="#ffb5aa"/>
   <rect x="14.552" y="31.75" width="1.3229" height="1.3229" rx="1.9073e-6" ry=".59358" fill="#b00000"/>
   <rect x="15.875" y="34.396" width="1.3229" height="1.3229" rx="1.9073e-6" ry=".59358" fill="#b00000"/>
  </g>
  <g fill="#dc8375" stroke-width="0">
   <rect x="21.167" y="37.042" width="2.6458" height="1.3229" rx="1.9073e-6" ry=".59358"/>
   <rect x="23.812" y="37.042" width="3.9688" height="1.3229" rx="1.9073e-6" ry=".59358"/>
   <rect x="22.49" y="35.719" width="5.2917" height="1.3229" rx="1.5765e-6" ry=".59358"/>
   <rect x="23.812" y="34.396" width="3.9688" height="1.3229" rx="1.9073e-6" ry=".59358"/>
   <rect x="25.135" y="29.104" width="1.3229" height="1.3229" rx="1.9073e-6" ry=".59358"/>
   <rect x="23.812" y="33.073" width="2.6458" height="1.3229" rx="1.9073e-6" ry=".59358"/>
   <rect x="25.135" y="30.427" width="1.3229" height="2.6458" rx="1.9073e-6" ry=".59358"/>
   <rect x="19.844" y="35.719" width="1.3229" height="1.3229" rx="1.9073e-6" ry=".59358"/>
   <rect x="21.167" y="35.719" width="1.3229" height="1.3229" rx="1.9073e-6" ry=".59358"/>
  </g>
  <g stroke-width="0">
   <rect x="26.458" y="19.844" width="1.3229" height="1.3229" rx="1.5765e-6" ry=".59358"/>
   <rect x="18.521" y="22.49" width="1.3229" height="1.3229" rx="1.5765e-6" ry=".59358"/>
   <rect x="19.844" y="21.167" width="3.9688" height="1.3229" rx="1.5765e-6" ry=".59358"/>
   <rect x="22.49" y="19.844" width="5.2917" height="1.3229" rx="1.5765e-6" ry=".59358"/>
   <rect x="27.781" y="19.844" width="1.3229" height="1.3229" rx="1.5765e-6" ry=".59358"/>
   <rect x="27.781" y="21.167" width="3.9688" height="1.3229" rx="1.5765e-6" ry=".59358"/>
   <rect x="29.104" y="22.49" width="3.9688" height="1.3229" rx="1.5765e-6" ry=".59358"/>
   <rect x="30.427" y="23.812" width="3.9688" height="1.3229" rx="1.5765e-6" ry=".59358"/>
   <rect x="30.427" y="25.135" width="3.9688" height="1.3229" rx="1.9073e-6"/>
   <rect x="34.396" y="26.458" width="1.3229" height="6.6146" rx="1.9073e-6"/>
   <rect x="19.844" y="22.49" width="9.2604" height="1.3229" rx="1.9073e-6"/>
   <rect x="23.812" y="21.167" width="3.9688" height="1.3229" rx="1.9073e-6"/>
   <rect x="26.458" y="23.812" width="3.9688" height="2.6458" rx="1.9073e-6"/>
   <rect x="27.781" y="26.458" width="1.3229" height="1.3229" rx="1.9073e-6"/>
  </g>
  <g stroke-width="0">
   <rect x="19.844" y="37.042" width="1.3229" height="1.3229" rx="1.9073e-6" ry=".59358" fill="#dc8375"/>
   <rect x="17.198" y="27.781" width="1.3229" height="5.2917" rx="1.9073e-6" ry=".59358" fill="#ffb5aa"/>
   <rect x="17.198" y="33.073" width="1.3229" height="1.3229" rx="1.9073e-6" ry=".59358" fill="#ffb5aa"/>
  </g>
 </g>
 <g>
  <g display="none">
   <path transform="scale(.26458)" d="m45 115v5h5v-5zm0 5h-5v5h5zm-5 5h-5v20h25v-10h-5v5h-15v-5zm50-10v5h10v-5h-5zm10 5v5h5v-5zm5 5v10h5v-10zm5 10v15h5v-15zm-15 0v10h5v-10zm-60 25v40h5v-40z" fill="#830000"/>
   <rect x="22.49" y="38.365" width="1.3229" height="1.3229" fill="#830000" stroke-width=".26458"/>
   <rect x="21.167" y="44.979" width="1.3229" height="1.3229" fill="#eb0000" stroke-width=".26458"/>
   <path transform="scale(.26458)" d="m35 145v15h5v-15z" fill="#deaa87"/>
   <rect x="10.583" y="42.333" width="3.9688" height="1.3229" fill="#deaa87" stroke-width=".26458"/>
   <path transform="scale(.26458)" d="m45 165c-3e-6 0 0 1.0013 0 2.2441v0.51172c0 1.2429-3e-6 2.2441 0 2.2441-3e-6 0 0 1.0013 0 2.2441v10.512c0 1.2429-3e-6 2.2441 0 2.2441h-5c-3e-6 0 0 1.0013 0 2.2441v5.5117c0 1.2429-3e-6 2.2441 0 2.2441h25c3e-6 0 0-1.0013 0-2.2441v-0.51172c0-1.2429 3e-6 -2.2441 0-2.2441h-10v-2.7559c0-1.2429 3e-6 -2.2441 0-2.2441h-5c3e-6 0 0-1.0013 0-2.2441v-10.512c0-1.2429 3e-6 -2.2441 0-2.2441h30c3e-6 0 0-1.0013 0-2.2441v-0.51172c0-1.2429 3e-6 -2.2441 0-2.2441zm40 25c-3e-6 0 0 1.0013 0 2.2441v0.51172c0 1.2429-3e-6 2.2441 0 2.2441h10c3e-6 0 0-1.0013 0-2.2441v-0.51172c0-1.2429 3e-6 -2.2441 0-2.2441z" fill="#c70000"/>
   <g fill="#b00000" stroke-width=".26458">
    <rect x="10.583" y="33.073" width="1.3229" height="3.9688" rx="1.5765e-6" ry=".59358"/>
    <rect x="11.906" y="35.719" width="2.6458" height="1.3229" rx="1.5765e-6" ry=".59358"/>
    <rect x="10.583" y="43.656" width="1.3229" height="5.2917" rx="1.5765e-6" ry=".59358"/>
    <rect x="27.781" y="38.365" width="1.3229" height="1.3229" rx="1.5765e-6" ry=".59358"/>
    <rect x="10.583" y="51.594" width="6.6146" height="1.3229" rx="1.5765e-6" ry=".59358"/>
    <rect x="22.49" y="51.594" width="3.9688" height="1.3229" rx="1.5765e-6" ry=".59358"/>
    <rect x="25.135" y="50.271" width="1.3229" height="1.3229" rx="1.5765e-6" ry=".59358"/>
    <rect x="13.229" y="30.427" width="1.3229" height="1.3229" rx="1.5765e-6" ry=".59358"/>
    <rect x="13.229" y="31.75" width="1.3229" height="1.3229" rx="1.5765e-6" ry=".59358"/>
   </g>
  </g>
  <g>
   <rect x="11.906" y="50.271" width="1.3229" height="3.9688" fill="#120e0e" stroke-width=".26458"/>
   <path d="m13.229 50.271v3.9688h3.9687v1.3229h1.3229v-5.2917h-1.3229z" fill="#251d1d" stroke-width=".26458"/>
   <g fill="#120e0e">
    <path transform="scale(.26458)" d="m50 205v5h5 10v-5h-10-5z"/>
    <path transform="scale(.26458)" d="m95 190v5h10 10 5v5h5v55 5h-15v-15h-5v20h5 15 5 5v-5h-5v-5-60h5v5h5v-5-5h-5-10-10-10-10zm45 10v55 10h5v-10-55h-5z"/>
    <path d="m27.781 55.562v5.2917h1.3229v-5.2917z" stroke-width=".26458"/>
    <rect x="25.135" y="54.24" width="2.6458" height="1.3229" stroke-width=".26458"/>
   </g>
   <path d="m22.49 50.271v5.2917h2.6458v-1.3229h2.6458v1.3229h1.3229v5.2917h-1.3229v3.9688h1.3229v3.9688h3.9688v-15.875h-1.3229v-1.3229h-6.6146v-1.3229z" fill="#251d1d" stroke-width=".26458"/>
   <rect x="31.75" y="70.115" width="1.3229" height="1.5e-6" fill="#725555" stroke-width=".00028174"/>
   <g stroke-width=".26458">
    <path d="m33.073 51.594v1.3229h1.3229v15.875h1.3229v1.3229h1.3229v-17.198h-1.3229v-1.3229h-1.3229z" fill="#251d1d"/>
    <rect x="34.396" y="67.469" width="4.8127e-13" height="2.6458" fill="#483737"/>
    <path d="m11.906 35.719v3.9688h3.9688v0.66146 0.66146h2.6458v-0.66146-0.66146h15.875v-3.9688h-2.6458v1.3229h-2.6458v-1.3229h-3.9688v1.3229h-3.9688v1.3229h-5.2917v-1.3229h-1.3229v-1.3229z" fill="#ffb387"/>
    <rect x="23.812" y="37.042" width="2.6458" height="1.3229" fill="#c28669"/>
    <path d="m27.781 35.719v1.3229h1.3229v2.6458h1.3229v-2.6458h1.3229v-1.3229h-2.6458z" fill="#b07960"/>
    <rect x="25.135" y="35.719" width="1.3229" height="1.3229" fill="#ba8065"/>
    <path d="m15.875 37.042v1.3229h7.9375v-1.3229h-6.6146z" fill="#de9b78"/>
    <rect x="17.198" y="39.688" width="3.9688" height="1.3229" fill="#de9b78"/>
    <rect x="14.552" y="35.719" width="1.3229" height="1.3229" fill="#deaa87"/>
   </g>
   <rect x="29.104" y="70.034" width="6.6146" height="2.7261" fill="#61462e" stroke-width=".37981"/>
   <g stroke-width="0">
    <rect x="33.073" y="35.719" width="1.3229" height="1.3229" fill="#de9b78"/>
    <path d="m31.75 35.719v1.3229h-1.3229v2.6458h3.9688v-3.9687h-1.3229z" fill="#d99774"/>
    <path d="m26.458 35.719v1.3229h-1.3229v1.3229h-1.3229v1.3229h5.2917v-2.6458h-1.3229v-1.3229z" fill="#d99774"/>
    <rect x="22.49" y="38.365" width="1.3229" height="1.3229" fill="#eba67f"/>
   </g>
   <path d="m10.583 35.719v3.9688h1.3229v-3.9688z" fill="#de9b78" stroke-width=".26458"/>
   <rect x="11.906" y="39.688" width="3.9688" height="1.3229" fill="#de9b78" stroke-width=".26458"/>
   <path transform="scale(.26458)" d="m40 150c-4e-6 0 0 1.0013 0 2.2441v25.512c0 1.2429-4e-6 2.2441 0 2.2441h5c4e-6 0 0-1.0013 0-2.2441v-2.7559h5c3e-6 0 0-1.0013 0-2.2441v-15.512c0-1.2429 3e-6 -2.2441 0-2.2441h-5v-2.7559c0-1.2429 4e-6 -2.2441 0-2.2441h-5z" fill="#c71600"/>
   <rect x="14.552" y="29.104" width="1.3229" height="1.3229" rx="1.5765e-6" ry=".59358" fill="#b00000" stroke-width=".26458"/>
   <path transform="scale(.26458)" d="m65 130c-3e-6 0 0 1.0013 0 2.2441v0.51172c0 1.2429-3e-6 2.2441 0 2.2441h-5c-3e-6 0 0 1.0013 0 2.2441v0.51172c0 1.2429-3e-6 2.2441 0 2.2441h10 2.332 0.33594 2.332 2.332 0.33594 2.332v-5h-2.332-0.33594-2.332c3e-6 0 0-1.0013 0-2.2441v-0.51172c0-1.2429 3e-6 -2.2441 0-2.2441h-10z" fill="#bf0f00"/>
   <path transform="scale(.26458)" d="m50 115v5c-3e-6 0 0 1.0013 0 2.2441v2.7559h-5v5h5v2.7559c0 1.2429-3e-6 2.2441 0 2.2441h5 5c3e-6 0 0-1.0013 0-2.2441v-2.7559h5 5c3e-6 0 0-1.0013 0-2.2441v-0.51172c0-1.2429 3e-6 -2.2441 0-2.2441h-5c3e-6 0 0-1.0013 0-2.2441v-5.5117c0-1.2429 3e-6 -2.2441 0-2.2441h-5-5-5z" fill="#c71600"/>
   <g fill="#830000">
    <path transform="scale(.26458)" d="m45 110c-3e-6 0 0 1.0013 0 2.2441v0.51172c0 1.2429-3e-6 2.2441 0 2.2441h5 5c3e-6 0 0-1.0013 0-2.2441v-0.51172c0-1.2429 3e-6 -2.2441 0-2.2441h-5-5zm0 5h-5c-3e-6 0 0 1.0013 0 2.2441v0.51172c0 1.2429-3e-6 2.2441 0 2.2441-4e-6 0 0 1.0013 0 2.2441v0.51172c0 1.2429-4e-6 2.2441 0 2.2441h5c4e-6 0 0-1.0013 0-2.2441v-0.51172c0-1.2429 4e-6 -2.2441 0-2.2441 3e-6 0 0-1.0013 0-2.2441v-0.51172c0-1.2429 3e-6 -2.2441 0-2.2441z"/>
    <rect x="13.229" y="35.719" width="2.6458" height="1.3229" rx="1.9073e-6" ry=".59358" stroke-width=".26458"/>
    <path transform="scale(.26458)" d="m35 125c-4e-6 0 0 1.0013 0 2.2441v0.51172c0 1.2429-4e-6 2.2441 0 2.2441-3e-6 0 0 1.0013 0 2.2441v5.5117c0 1.2429-3e-6 2.2441 0 2.2441-4e-6 0 0 1.0013 0 2.2441v5.5117c0 1.2429-4e-6 2.2441 0 2.2441-4e-6 0 0 1.0013 0 2.2441v5.5117c0 1.2429-4e-6 2.2441 0 2.2441-4e-6 0 0 1.0013 0 2.2441v5.5117c0 1.2429-4e-6 2.2441 0 2.2441-4e-6 0 0 1.0013 0 2.2441v5.5117c0 1.2429-4e-6 2.2441 0 2.2441h5c4e-6 0 0-1.0013 0-2.2441v-5.5117c0-1.2429 4e-6 -2.2441 0-2.2441 4e-6 0 0-1.0013 0-2.2441v-5.5117c0-1.2429 4e-6 -2.2441 0-2.2441 4e-6 0 0-1.0013 0-2.2441v-5.5117c0-1.2429 4e-6 -2.2441 0-2.2441 4e-6 0 0-1.0013 0-2.2441v-5.5117c0-1.2429 4e-6 -2.2441 0-2.2441v-2.2441-2.7559h10c4e-6 0 0-1.0013 0-2.2441v-0.51172c0-1.2429 4e-6 -2.2441 0-2.2441h-10c4e-6 0 0-1.0013 0-2.2441v-0.51172c0-1.2429 4e-6 -2.2441 0-2.2441h-5z"/>
    <rect x="14.552" y="27.781" width="1.3229" height="1.3229" rx="1.5765e-6" ry=".59358" stroke-width=".26458"/>
    <rect x="15.875" y="34.396" width="1.3229" height="1.3229" rx="1.9073e-6" ry=".59358" stroke-width="0"/>
   </g>
   <path transform="scale(.26458)" d="m55 110c-4e-6 0 0 1.0013 0 2.2441v0.51172c0 1.2429-4e-6 2.2441 0 2.2441h5c4e-6 0 0-1.0013 0-2.2441v-0.51172c0-1.2429 4e-6 -2.2441 0-2.2441h-5zm5 5c-3e-6 0 0 1.0013 0 2.2441v0.51172c0 1.2429-3e-6 2.2441 0 2.2441h5c3e-6 0 0-1.0013 0-2.2441v-0.51172c0-1.2429 3e-6 -2.2441 0-2.2441h-5zm5 5c-4e-6 0 0 1.0013 0 2.2441v0.51172c0 1.2429-4e-6 2.2441 0 2.2441h5c4e-6 0 0-1.0013 0-2.2441v-0.51172c0-1.2429 4e-6 -2.2441 0-2.2441h-5z" fill="#900" stroke-width="0"/>
   <path d="m13.229 42.333c-1e-6 0 0 0.26492 0 0.59376v0.72915h-2.6458c-2e-6 0 0 0.26492 0 0.59376v0.13539c0 0.32884-2e-6 0.59376 0 0.59376h-1.3229c-1.1e-6 0 0 0.26492 0 0.59376v0.13539c0 0.32884-1.1e-6 0.59376 0 0.59376-1.1e-6 0 0 0.26492 0 0.59376v0.13539c0 0.32885-1.1e-6 0.59376 0 0.59376h1.3229c-3e-6 0 0 0.26492 0 0.59376v1.4583c0 0.32884-3e-6 0.59376 0 0.59376h7.9375c3e-6 0 0-0.26492 0-0.59376v-1.4583c0-0.32884 3e-6 -0.59376 0-0.59376h-2.6458c1e-6 0 0-0.26492 0-0.59376v-0.13539c0-0.32885 1e-6 -0.59376 0-0.59376h-1.3229v-3.9688z" fill="#600" stroke-width="0"/>
   <g fill="#9c0b00" stroke-width="0">
    <rect x="13.229" y="33.073" width="2.4064e-13" height="1.3229" rx="6.6146" ry="1.3229"/>
    <rect x="13.229" y="34.396" width="0" height="1.6765e-6" rx="0" ry="0"/>
    <rect x="13.229" y="33.073" width="0" height="1.3229"/>
    <rect x="11.906" y="30.427" width="1.3229" height="2.6458" rx="6.6146" ry="2.0382e-6"/>
    <rect x="13.229" y="33.073" width="2.4064e-13" height="1.3229" rx="0"/>
    <rect x="10.583" y="33.073" width="1.3229" height="1.3229"/>
   </g>
   <g stroke-width="0">
    <rect x="21.167" y="34.396" width="1.3229" height="1.3229" rx=".61705" ry="4.5e-7" fill="#7d0500"/>
    <rect x="22.49" y="35.719" width="2.6458" height="1.3229" rx=".61705" ry="4.5e-7" fill="#7d0500"/>
    <rect x="19.844" y="34.396" width="1.3229" height="1.3229" rx=".61705" ry="4.5e-7" fill="#990b00"/>
    <rect x="21.167" y="35.719" width="1.3229" height="1.3229" rx=".61705" ry="4.5e-7" fill="#990b00"/>
    <rect x="13.229" y="41.01" width="9.2604" height="1.3229" rx="1.051e-6" ry=".59358" fill="#8f0000"/>
    <rect x="23.812" y="47.625" width="1.3229" height="2.6458" rx="1.051e-6" ry=".59358" fill="#600"/>
   </g>
   <path d="m27.781 72.76v2.6458h11.906v-1.3229h-10.583v-1.3229z" fill="#003d3d" stroke-width=".26458"/>
   <path transform="scale(.26458)" d="m135 260v15h-25v5h45v-5h-10v-5h-5v-5h5v-5h-5-5zm10 5v5h5v-5h-5z" fill="#004747"/>
   <rect x="37.042" y="70.115" width="1.3229" height="1.3229" fill="#005252" stroke-width=".26458"/>
   <path transform="scale(.26458)" d="m150 265v5h-5v5h10 5 5v-5h-5-5v-5h-5z" fill="#005252" stroke-width=".7071"/>
   <rect x="19.844" y="33.073" width="1.3229" height="1.3229" rx="1.9073e-6" ry=".59358" fill="#dc8375" stroke-width="0"/>
  </g>
 </g>
 <g display="none">
  <g display="none">
   <path transform="scale(.26458)" d="m45 115v5h5v-5zm0 5h-5v5h5zm-5 5h-5v20h25v-10h-5v5h-15v-5zm50-10v5h10v-5h-5zm10 5v5h5v-5zm5 5v10h5v-10zm5 10v15h5v-15zm-15 0v10h5v-10zm-60 25v40h5v-40z" fill="#830000"/>
   <rect x="22.49" y="38.365" width="1.3229" height="1.3229" fill="#830000" stroke-width=".26458"/>
   <rect x="21.167" y="44.979" width="1.3229" height="1.3229" fill="#eb0000" stroke-width=".26458"/>
   <path transform="scale(.26458)" d="m35 145v15h5v-15z" fill="#deaa87"/>
   <rect x="10.583" y="42.333" width="3.9688" height="1.3229" fill="#deaa87" stroke-width=".26458"/>
   <path transform="scale(.26458)" d="m45 165c-3e-6 0 0 1.0013 0 2.2441v0.51172c0 1.2429-3e-6 2.2441 0 2.2441-3e-6 0 0 1.0013 0 2.2441v10.512c0 1.2429-3e-6 2.2441 0 2.2441h-5c-3e-6 0 0 1.0013 0 2.2441v5.5117c0 1.2429-3e-6 2.2441 0 2.2441h25c3e-6 0 0-1.0013 0-2.2441v-0.51172c0-1.2429 3e-6 -2.2441 0-2.2441h-10v-2.7559c0-1.2429 3e-6 -2.2441 0-2.2441h-5c3e-6 0 0-1.0013 0-2.2441v-10.512c0-1.2429 3e-6 -2.2441 0-2.2441h30c3e-6 0 0-1.0013 0-2.2441v-0.51172c0-1.2429 3e-6 -2.2441 0-2.2441zm40 25c-3e-6 0 0 1.0013 0 2.2441v0.51172c0 1.2429-3e-6 2.2441 0 2.2441h10c3e-6 0 0-1.0013 0-2.2441v-0.51172c0-1.2429 3e-6 -2.2441 0-2.2441z" fill="#c70000"/>
   <g fill="#b00000" stroke-width=".26458">
    <rect x="10.583" y="33.073" width="1.3229" height="3.9688" rx="1.5765e-6" ry=".59358"/>
    <rect x="11.906" y="35.719" width="2.6458" height="1.3229" rx="1.5765e-6" ry=".59358"/>
    <rect x="10.583" y="43.656" width="1.3229" height="5.2917" rx="1.5765e-6" ry=".59358"/>
    <rect x="27.781" y="38.365" width="1.3229" height="1.3229" rx="1.5765e-6" ry=".59358"/>
    <rect x="10.583" y="51.594" width="6.6146" height="1.3229" rx="1.5765e-6" ry=".59358"/>
    <rect x="22.49" y="51.594" width="3.9688" height="1.3229" rx="1.5765e-6" ry=".59358"/>
    <rect x="25.135" y="50.271" width="1.3229" height="1.3229" rx="1.5765e-6" ry=".59358"/>
    <rect x="13.229" y="30.427" width="1.3229" height="1.3229" rx="1.5765e-6" ry=".59358"/>
    <rect x="13.229" y="31.75" width="1.3229" height="1.3229" rx="1.5765e-6" ry=".59358"/>
   </g>
  </g>
  <g display="inline">
   <rect x="10.583" y="52.917" width="1.3229" height="3.9688" stroke-width=".26458"/>
   <path transform="scale(.26458)" d="m45 200v15h15v5h5v-20h-5z" fill="#251d1d"/>
   <g>
    <rect x="13.229" y="56.885" width="2.6458" height="1.3229" stroke-width=".26458"/>
    <rect x="11.906" y="56.885" width="1.3229" height="1.3229" stroke-width=".26458"/>
    <path transform="scale(.26458)" d="m115 205v5h5v60h-15v-15h-5v20h30v-5h-5v-65h-5z"/>
    <path transform="scale(.26458)" d="m100 220v20h5v-20z"/>
    <rect x="23.813" y="56.885" width="2.6458" height="1.3229" stroke-width=".26458"/>
   </g>
   <path transform="scale(.26458)" d="m80 200v20h10v-5h10v5h5v20h-5v15h5v15h15v-60h-5v-5h-25v-5z" fill="#251d1d"/>
   <rect x="30.427" y="72.76" width="1.3229" height="1.5e-6" fill="#725555" stroke-width=".00028174"/>
   <path transform="scale(.26458)" d="m90 200v5h40v5h5v-10h-35z"/>
   <path transform="scale(.26458)" d="m120 205v5h5v60h5v5h5v-65h-5v-5h-5z" fill="#251d1d"/>
   <path transform="scale(.26458)" d="m135 210v65h5v-65z" stroke-width=".95743"/>
   <rect x="33.073" y="70.115" width="4.8127e-13" height="2.6458" fill="#483737" stroke-width=".26458"/>
   <g fill="#fca">
    <path transform="scale(.26458)" d="m40 145v15h15c-1e-6 0 0 1.115 0 2.5s-1e-6 2.5 0 2.5h10c1e-6 0 0-1.115 0-2.5s1e-6 -2.5 0-2.5h60v-15h-10v5h-10v-5h-15v5h-15v5h-20v-5h-5v-5z"/>
    <rect x="18.521" y="39.688" width="5.2917" height="1.3229" stroke-width=".26458"/>
    <rect x="22.49" y="39.688" width="2.6458" height="1.3229" stroke-width=".26458"/>
   </g>
   <g fill="#deaa87">
    <rect x="26.458" y="38.365" width="1.3229" height="1.3229" stroke-width=".26458"/>
    <rect x="23.813" y="38.365" width="1.3229" height="1.3229" stroke-width=".26458"/>
    <path transform="scale(.26458)" d="m55 150v5h30v-5h-25z"/>
   </g>
   <rect x="15.875" y="42.333" width="3.9688" height="1.3229" fill="#fca" stroke-width=".26458"/>
   <rect x="13.229" y="38.365" width="1.3229" height="1.3229" fill="#deaa87" stroke-width=".26458"/>
   <rect x="27.781" y="72.68" width="6.6146" height="2.7261" fill="#61462e" stroke-width=".37981"/>
   <g fill="#deaa87">
    <rect x="27.781" y="39.688" width="1.3229" height="2.6458" stroke-width=".26458"/>
    <g stroke-width="0">
     <rect x="27.781" y="38.365" width="1.3229" height="1.3229"/>
     <rect x="29.104" y="38.365" width="1.3229" height="1.3229"/>
     <rect x="31.75" y="38.365" width="1.3229" height="1.3229"/>
    </g>
   </g>
   <rect x="21.167" y="44.979" width="1.3229" height="1.3229" fill="#eb0000" stroke-width=".26458"/>
   <path transform="scale(.26458)" d="m35 145v15h5v-15z" fill="#deaa87"/>
   <rect x="10.583" y="42.333" width="3.9688" height="1.3229" fill="#deaa87" stroke-width=".26458"/>
   <path transform="scale(.26458)" d="m45 165c-3e-6 0 0 1.0013 0 2.2441v0.51172c0 1.2429-3e-6 2.2441 0 2.2441-3e-6 0 0 1.0013 0 2.2441v10.512c0 1.2429-3e-6 2.2441 0 2.2441h-5c-3e-6 0 0 1.0013 0 2.2441v5.5117c0 1.2429-3e-6 2.2441 0 2.2441h25c3e-6 0 0-1.0013 0-2.2441v-0.51172c0-1.2429 3e-6 -2.2441 0-2.2441h-10v-2.7559c0-1.2429 3e-6 -2.2441 0-2.2441h-5c3e-6 0 0-1.0013 0-2.2441v-10.512c0-1.2429 3e-6 -2.2441 0-2.2441h30c3e-6 0 0-1.0013 0-2.2441v-0.51172c0-1.2429 3e-6 -2.2441 0-2.2441zm40 25c-3e-6 0 0 1.0013 0 2.2441v0.51172c0 1.2429-3e-6 2.2441 0 2.2441h10c3e-6 0 0-1.0013 0-2.2441v-0.51172c0-1.2429 3e-6 -2.2441 0-2.2441z" fill="#8f0000"/>
   <g stroke-width=".26458">
    <rect x="10.583" y="33.073" width="1.3229" height="3.9688" rx="1.5765e-6" ry=".59358" fill="#b01500"/>
    <rect x="11.906" y="35.719" width="2.6458" height="1.3229" rx="1.5765e-6" ry=".59358" fill="#c72800"/>
    <rect x="10.583" y="43.656" width="1.3229" height="5.2917" rx="1.5765e-6" ry=".59358" fill="#b01a00"/>
   </g>
   <g fill="#b00000">
    <rect x="10.583" y="51.594" width="6.6146" height="1.3229" rx="1.5765e-6" ry=".59358" stroke-width=".26458"/>
    <rect x="22.49" y="51.594" width="2.6458" height="1.3229" rx="1.051e-6" ry=".59358" stroke-width=".21603"/>
    <rect x="13.229" y="31.75" width="1.3229" height="1.3229" rx="1.5765e-6" ry=".59358" stroke-width=".26458"/>
   </g>
   <g fill="#c72800" stroke-width=".26458">
    <rect x="11.906" y="31.75" width="1.3229" height="3.9688" rx="1.5765e-6" ry=".59358"/>
    <rect x="13.229" y="34.396" width="1.3229" height="1.3229" rx="1.5765e-6" ry=".59358"/>
    <rect x="13.229" y="33.073" width="1.3229" height="1.3229" rx="1.5765e-6" ry=".59358"/>
   </g>
   <g stroke-width=".26458">
    <rect x="14.552" y="38.365" width="2.6458" height="1.3229" rx="1.5765e-6" ry=".59358" fill="#a32100"/>
    <rect x="14.552" y="33.073" width="1.3229" height="2.6458" rx="1.5765e-6" ry=".59358" fill="#b01700"/>
    <rect x="15.875" y="35.719" width="1.3229" height="1.3229" rx="1.5765e-6" ry=".59358" fill="#b01700"/>
    <rect x="15.875" y="37.042" width="2.6458" height="1.3229" rx="1.5765e-6" ry=".59358" fill="#a32100"/>
    <rect x="9.2604" y="34.396" width="1.3229" height="1.3229" rx="1.9073e-6" ry=".59358" fill="#830000"/>
    <rect x="11.906" y="38.365" width="2.6458" height="1.3229" rx="1.9073e-6" ry=".59358" fill="#830000"/>
    <rect x="10.583" y="37.042" width="5.2917" height="1.3229" rx="1.9073e-6" ry=".59358" fill="#c72800"/>
    <rect x="14.552" y="35.719" width="1.3229" height="1.3229" rx="1.9073e-6" ry=".59358" fill="#b01700"/>
   </g>
   <g fill="#830000" stroke-width=".26458">
    <rect x="9.2604" y="51.594" width="1.3229" height="1.3229" rx="1.9073e-6" ry=".59358"/>
    <rect x="9.2604" y="50.271" width="1.3229" height="1.3229" rx="1.9073e-6" ry=".59358"/>
    <rect x="7.9375" y="47.625" width="1.3229" height="2.6458" rx="1.9073e-6" ry=".59358"/>
    <rect x="7.9375" y="44.979" width="1.3229" height="2.6458" rx="1.9073e-6" ry=".59358"/>
    <rect x="7.9375" y="42.333" width="1.3229" height="2.6458" rx="1.9073e-6" ry=".59358"/>
    <rect x="7.9375" y="39.688" width="1.3229" height="2.6458" rx="1.9073e-6" ry=".59358"/>
   </g>
   <rect x="9.2604" y="42.333" width="1.3229" height="7.9375" rx="1.9073e-6" ry=".59358" fill="#b01a00" stroke-width=".26458"/>
   <g fill="#830000" stroke-width=".26458">
    <rect x="7.9375" y="35.719" width="1.3229" height="1.3229" rx="1.9073e-6" ry=".59358"/>
    <rect x="9.2604" y="33.073" width="1.3229" height="1.3229" rx="1.5765e-6" ry=".59358"/>
    <rect x="10.583" y="31.75" width="1.3229" height="1.3229" rx="1.5765e-6" ry=".59358"/>
    <rect x="11.906" y="31.75" width="1.3229" height="1.3229" rx="1.5765e-6" ry=".59358"/>
    <rect x="13.229" y="30.427" width="1.3229" height="1.3229" rx="1.5765e-6" ry=".59358"/>
    <rect x="7.9375" y="37.042" width="1.3229" height="2.6458" rx="1.5765e-6" ry=".59358"/>
   </g>
   <rect x="9.2604" y="35.719" width="1.3229" height="2.6458" rx="1.5765e-6" ry=".59358" fill="#b01500" stroke-width=".26458"/>
   <rect x="9.2604" y="37.042" width="2.6458" height="1.3229" rx="1.9073e-6" ry=".59358" fill="#830000" stroke-width="0"/>
   <rect x="14.552" y="37.042" width="1.3229" height="1.3229" rx="1.9073e-6" ry=".59358" fill="#830000" stroke-width="0"/>
   <g fill="#a30000" stroke-width="0">
    <g>
     <rect x="17.198" y="38.365" width="3.9688" height="1.3229" rx="1.5765e-6" ry=".59358"/>
     <rect x="18.521" y="37.042" width="1.3229" height="1.3229" rx="1.5765e-6" ry=".59358"/>
     <rect x="21.167" y="38.365" width="1.3229" height="1.3229" rx="1.5765e-6" ry=".59358"/>
     <rect x="22.49" y="38.365" width="1.3229" height="1.3229" rx="1.5765e-6" ry=".59358"/>
    </g>
    <rect x="19.844" y="37.042" width="1.3229" height="1.3229" rx="1.5765e-6" ry=".59358"/>
   </g>
   <rect x="14.552" y="33.073" width="1.3229" height="1.3229" rx="1.5765e-6" ry=".59358" fill="#900" stroke-width="0"/>
   <g fill="#600" stroke-width="0">
    <rect x="11.906" y="44.979" width="1.3229" height="3.9688" rx="1.5765e-6" ry=".59358"/>
    <rect x="9.2604" y="46.302" width="2.6458" height="1.3229" rx="1.5765e-6" ry=".59358"/>
    <rect x="7.9375" y="47.625" width="1.3229" height="1.3229" rx="1.5765e-6" ry=".59358"/>
    <rect x="9.2604" y="47.625" width="2.6458" height="2.6458" rx="1.9073e-6" ry=".59358"/>
    <rect x="7.9375" y="48.948" width="1.3229" height="1.3229" rx="1.9073e-6" ry=".59358"/>
    <rect x="9.2604" y="50.271" width="7.9375" height="2.6458" rx="1.9073e-6" ry=".59358"/>
    <rect x="11.906" y="48.948" width="2.6458" height="1.3229" rx="1.9073e-6" ry=".59358"/>
    <rect x="22.49" y="50.271" width="2.6458" height="2.6458" rx="1.9073e-6" ry=".59358"/>
   </g>
   <rect x="38.365" y="76.729" width="2.6458" height="1.3229" fill="#005252" stroke-width=".26458"/>
   <path transform="scale(.26458)" d="m100 285v10h45v-5h-40v-5z" fill="#003d3d"/>
   <path transform="scale(.26458)" d="m130 270v15h5v-10h5v-5h-5zm10 5v5h5v-5z" fill="#004747"/>
   <path transform="scale(.26458)" d="m135 280v5h-30v5h45v-5h-10v-5z" fill="#004747" stroke-width=".94868"/>
   <g fill="#005252">
    <rect x="35.719" y="72.76" width="1.3229" height="1.3229" stroke-width=".26458"/>
    <rect x="41.01" y="74.083" width="1.3229" height="1.3229" stroke-width=".18709"/>
    <g stroke-width=".26458">
     <rect x="42.333" y="75.406" width="1.3229" height="2.6458"/>
     <rect x="37.042" y="74.083" width="2.6458" height="1.3229"/>
     <rect x="38.365" y="72.76" width="1.3229" height="1.3229"/>
     <rect x="39.688" y="74.083" width="1.3229" height="1.3229"/>
    </g>
   </g>
   <g stroke-width=".26458">
    <rect x="41.01" y="75.406" width="1.3229" height="1.3229" fill="#006b6b"/>
    <rect x="41.01" y="76.729" width="1.3229" height="1.3229" fill="#005252"/>
    <rect x="39.688" y="75.406" width="2.6458" height="1.3229" fill="#006b6b"/>
   </g>
   <rect x="18.521" y="35.719" width="1.3229" height="1.3229" rx="1.9073e-6" ry=".59358" fill="#dc8375" stroke-width="0"/>
  </g>
 </g>
 <g>
  <g>
   <path transform="scale(.26458)" d="m80 70c-2e-6 0 0 1.0013 0 2.2441v0.51172c0 1.2429-2e-6 2.2441 0 2.2441h-5c-3e-6 0 0 1.0013 0 2.2441v0.51172c0 1.2429-3e-6 2.2441 0 2.2441h-5c-3e-6 0 0 1.0013 0 2.2441v0.51172c0 1.2429-3e-6 2.2441 0 2.2441-4e-6 0 0 1.0013 0 2.2441v5.5117c0 1.2429-4e-6 2.2441 0 2.2441h5c4e-6 0 0-1.0013 0-2.2441v-2.7559h5c4e-6 0 0-1.0013 0-2.2441v-2.7559h5v-5h10v-5h-5c2e-6 0 0-1.0013 0-2.2441v-0.51172c0-1.2429 2e-6 -2.2441 0-2.2441h-10z"/>
   <path transform="scale(.26458)" d="m85 80c-3e-6 0 0 1.0013 0 2.2441v0.51172c0 1.2429-3e-6 2.2441 0 2.2441h-5c-3e-6 0 0 1.0013 0 2.2441v2.7559h-5c-3e-6 0 0 1.0013 0 2.2441v2.7559h-5c-4e-6 0 0 1.0013 0 2.2441v15.512c0 1.2429-4e-6 2.2441 0 2.2441-4e-6 0 0 1.0013 0 2.2441v0.51172c0 1.2429-4e-6 2.2441 0 2.2441h5v2.7559c0 1.2429-4e-6 2.2441 0 2.2441h5v2.7559c0 1.2429-4e-6 2.2441 0 2.2441h5 20v-2.2441-0.51172-2.2441-2.2441-5.5117-2.2441-2.2441-15.512-2.2441h-5v-2.2441-2.7559h5v-2.2441-0.51172-2.2441-2.2441-0.51172-2.2441h-20z" fill="#ffa699"/>
   <rect x="17.198" y="25.135" width="1.3229" height="2.6458" rx="1.9073e-6" ry=".59358" fill="#ef8d78" stroke-width=".26458"/>
   <path transform="scale(.26458)" d="m65 105c-4e-6 0 0 1.0013 0 2.2441v0.51172c0 1.2429-4e-6 2.2441 0 2.2441h-5c-4e-6 0 0 1.0013 0 2.2441v0.51172c0 1.2429-4e-6 2.2441 0 2.2441h5c-4e-6 0 0 1.0013 0 2.2441v5.5117c0 1.2429-4e-6 2.2441 0 2.2441h5 5c4e-6 0 0-1.0013 0-2.2441v-0.51172c0-1.2429 4e-6 -2.2441 0-2.2441h-5v-2.7559c0-1.2429 4e-6 -2.2441 0-2.2441 4e-6 0 0-1.0013 0-2.2441v-0.51172c0-1.2429 4e-6 -2.2441 0-2.2441 4e-6 0 0-1.0013 0-2.2441v-0.51172c0-1.2429 4e-6 -2.2441 0-2.2441h-5z" fill="#ffb082"/>
   <g stroke-width=".26458">
    <rect x="17.198" y="25.135" width="1.3229" height="1.3229" rx="1.9073e-6" ry=".59358"/>
    <rect x="22.49" y="34.396" width="3.9688" height="1.3229" rx="1.9073e-6" ry=".59358" fill="#ffb5aa"/>
    <rect x="18.521" y="33.073" width="1.3229" height="1.3229" rx="1.9073e-6" ry=".59358" fill="#830000"/>
    <rect x="15.875" y="27.781" width="1.3229" height="1.3229" rx="1.9073e-6" ry=".59358" fill="#ef8d78"/>
    <rect x="15.875" y="26.458" width="1.3229" height="1.3229" rx="1.9073e-6" ry=".59358" fill="#a56950"/>
   </g>
   <g stroke-width="0">
    <rect x="19.844" y="33.073" width="1.3229" height="1.3229" rx="1.9073e-6" ry=".59358" fill="#ffb5aa"/>
    <rect x="17.198" y="31.75" width="1.3229" height="1.3229" rx="1.9073e-6" ry=".59358" fill="#900"/>
    <path transform="scale(.26458)" d="m100 125c-3e-6 0 0 1.0013 0 2.2441v0.51172c0 1.2429-3e-6 2.2441 0 2.2441h-15c-4e-6 0 0 1.0013 0 2.2441v0.51172c0 1.2429-4e-6 2.2441 0 2.2441h20v-2.2441-0.51172-2.2441-2.2441-0.51172-2.2441h-5z" fill="#dc8375"/>
    <rect x="21.167" y="33.073" width="1.3229" height="1.3229" rx="1.9073e-6" ry=".59358" fill="#dc8375"/>
    <path transform="scale(.26458)" d="m90 65c-2e-6 0 0 1.0013 0 2.2441v0.51172c0 1.2429-2e-6 2.2441 0 2.2441-3e-6 0 0 1.0013 0 2.2441v0.51172c0 1.2429-3e-6 2.2441 0 2.2441h5c3e-6 0 0-1.0013 0-2.2441v-0.51172c0-1.2429 3e-6 -2.2441 0-2.2441h10 5v-2.2441-0.51172-2.2441h-5-15zm5 10c-3e-6 0 0 1.0013 0 2.2441v0.51172c0 1.2429-3e-6 2.2441 0 2.2441h5 5v-5h-5-5z" fill="#14140d"/>
    <rect x="29.104" y="17.198" width="1.3229" height="1.3229" rx="1.5765e-6" ry=".59358" fill="#1a1a10"/>
    <path transform="scale(.26458)" d="m115 65v5h-5v2.2441 0.51172 2.2441h-5v5 2.2441 2.7559 2.2441 0.51172 2.2441 2.7559 2.2441h5v5 15 5h5v5h5v-5h10v-2.2441-0.51172-2.2441h5 5v-15h5v-10h-5v-10h-5v-5h-5v-5h-5-5v-5h-5z" fill="#1f1f13"/>
    <rect x="25.135" y="18.521" width="3.9688" height="1.3229" rx="1.9073e-6" fill="#1a1a10"/>
    <rect x="27.781" y="25.135" width="1.3229" height="6.6146" rx="1.9073e-6" ry=".59358" fill="#ffb5aa"/>
   </g>
   <g stroke-width="0">
    <path transform="scale(.26458)" d="m95 90v5h5 5v-5h-5-5z" fill="#14140c"/>
    <rect x="19.844" y="33.073" width="1.3229" height="1.3229" rx="1.9073e-6" ry=".59358" fill="#900"/>
    <rect x="27.781" y="31.75" width="1.3229" height="1.3229" rx="1.9073e-6" ry=".59358" fill="#ffb5aa"/>
    <rect x="27.781" y="31.75" width="1.3229" height="1.3229" rx="1.9073e-6" ry=".59358" fill="#dc8375"/>
    <rect x="27.781" y="25.135" width="1.3229" height="6.6146" rx="1.9073e-6" ry=".59358" fill="#dc8375"/>
    <path transform="scale(.26458)" d="m130 115v5h-15-5v5h-5v10h30v-10-5-5h-5z" fill="#14140c"/>
   </g>
   <path transform="scale(.26458)" d="m180 160v1.9805 11.039 1.9805 5h20 15 95v-2.457-0.08594-2.457h-95-15-15v-1.9805-11.039-1.9805h-5z" fill="#2a2113"/>
   <rect x="56.885" y="66.146" width="1.9251e-12" height="14.552" fill="#2b1100" stroke-width=".26458"/>
   <rect x="48.948" y="42.333" width="34.396" height="3.9688" rx="2.1573e-6" ry=".65011" fill="#302215" stroke-width=".30951"/>
   <rect x="18.521" y="47.625" width="3.9688" height="27.781" rx="1.5765e-6" ry=".59358" fill="#291f11" stroke-width=".25282"/>
   <path d="m39.688 47.625v27.781h3.9688v-27.781z" fill="#291f11" stroke-width=".25282"/>
   <path d="m14.552 42.333v3.9687h33.073v-3.9687h-31.801z" fill="#4e3b22" stroke-width=".25944"/>
  </g>
  <g fill="#1c140c" stroke-width=".26458">
   <rect x="22.49" y="47.625" width="1.3229" height="27.781" rx="1.5765e-6" ry=".59358"/>
   <rect x="43.656" y="47.625" width="1.3229" height="27.781" rx="1.5765e-6" ry=".59358"/>
   <rect x="58.208" y="47.625" width="1.3229" height="27.781" rx="1.5765e-6" ry=".59358"/>
  </g>
  <g stroke-width=".26458">
   <rect x="78.052" y="47.625" width="1.3229" height="27.781" rx="1.5765e-6" ry=".59358" fill="#221a12"/>
   <rect x="74.083" y="47.625" width="3.9688" height="27.781" rx="1.051e-6" ry=".59358" fill="#261d10"/>
   <rect x="54.24" y="47.625" width="3.9688" height="27.781" rx="1.051e-6" ry=".59358" fill="#261d10"/>
   <path d="m14.552 42.333c-1e-6 0 0 0.2337 0 0.524v0.27492c0 0.2903-1e-6 0.524 0 0.524-1e-6 0 0 0.2337 0 0.524v0.27492c0 0.2903-1e-6 0.524 0 0.524-1e-6 0 0 0.2337 0 0.524v0.27492c0 0.2903-1e-6 0.524 0 0.524h1.3229c-1e-6 0 0 0.2337 0 0.524v0.27492c0 0.2903-1e-6 0.524 0 0.524h31.75v-0.524-2.9208-0.524-0.524-0.27492-0.524h-1.3229v0.524 0.27492 0.524 0.524 0.79892h-2.6458v0.524 0.27492 0.524h-25.135c1e-6 0 0-0.2337 0-0.524v-0.27492c0-0.2903 1e-6 -0.524 0-0.524h-2.6458c1e-6 0 0-0.2337 0-0.524v-0.27492c0-0.2903 1e-6 -0.524 0-0.524 1e-6 0 0-0.2337 0-0.524v-0.27492c0-0.2903 1e-6 -0.524 0-0.524z" fill="#42321d"/>
   <path d="m38.365 25.135v1.3229h19.844v-1.3229h-18.521zm19.844 1.3229v1.9844c0 0.36645-3e-6 0.66146 0 0.66146v0.66146c0 0.36645-3e-6 0.66146 0 0.66146h1.3229v-3.9688zm0 3.9688h-1.3229v5.2917h1.3229v-4.6302zm-1.3229 5.2917h-1.3229v3.9687h1.3229v-3.3073zm-1.3229 3.9687h-19.844v-3.9687h-1.3229v3.9687h-13.229c-1e-6 0 0 0.29501 0 0.66146s-1e-6 0.66146 0 0.66146h1.3229c-2e-6 0 0 0.29501 0 0.66146 0 0.36645-2e-6 0.66146 0 0.66146h13.229v-1.3229h19.844v-0.67283zm-19.844-3.9687h1.3229v-5.2917h-1.3229v4.6302zm1.3229-5.2917h1.3229v-3.9688h-1.3229v3.3073z" fill="#383838"/>
  </g>
  <g fill-opacity="0" stroke-width=".26458">
   <rect x="38.365" y="26.458" width="7.9375" height="1.3229" rx="1.5765e-6" ry=".65011"/>
   <rect x="44.979" y="26.458" width="11.906" height="1.3229" rx="1.5765e-6" ry=".65011"/>
   <rect x="38.365" y="26.458" width="5.2917" height="1.3229" rx="1.5765e-6" ry=".65011"/>
   <rect x="52.917" y="29.104" width="4.8127e-13" height="1.3229" rx="1.5765e-6" ry=".65011"/>
   <rect x="39.687" y="30.427" width="2.6458" height="5.2917" rx="1.5765e-6" ry=".65011"/>
  </g>
  <g stroke-width=".26458">
   <path d="m38.365 26.458v0.65009 0.02274 0.65009 0.65009 0.02274 0.65009 0.65009 0.02274 0.65009h1.3229v-0.65009-0.02274-0.65009-0.65009-0.02274-0.65009-0.65009-0.02274-0.65009z" fill="#808080"/>
   <rect x="34.396" y="41.01" width="19.844" height="1.3229" rx="1.5765e-6" ry=".65011" fill="#4d4d4d"/>
   <rect x="54.24" y="41.01" width="1.3229" height="1.3229" rx="1.5765e-6" ry=".65011" fill-opacity="0"/>
  </g>
  <g>
   <path transform="scale(.26458)" d="m150 100v15h-5v15 5h5v5h2.332 0.33594 2.332 10v5h45v-5-5h5v-2.457-0.08594-2.457-7.5-7.5h5v-7.5-7.5h-10-55-5z" fill="#d9d9be"/>
   <path d="m37.042 35.719v1.3229h2.6458v-1.3229h-1.7639z" fill="#ccccba" stroke-width=".21603"/>
   <rect x="39.688" y="37.042" width="3.9687" height="1.3229" rx="2.3647e-6" fill="#ccccba" stroke-width=".32405"/>
   <path transform="scale(.26458)" d="m140 140v5 5h15v-5h-10v-5h-5z" fill="#c2c2b1"/>
   <g stroke-width="0">
    <rect x="37.042" y="30.427" width="1.3229" height="5.2917" rx="1.9073e-6" ry=".59358" fill="#808080"/>
    <rect x="35.719" y="35.719" width="1.3229" height="3.9688" rx="1.9073e-6" ry=".59358" fill="#808080"/>
    <rect x="38.365" y="37.042" width="1.3229" height="1.3229" rx="2.3647e-6" fill="#c2c2b1"/>
    <rect x="41.01" y="38.365" width="14.552" height="1.3229" rx="2.3647e-6" fill="#c2c2b1"/>
   </g>
  </g>
 </g>
</svg>
