<?xml version="1.0" encoding="UTF-8"?>
<!-- Created with Inkscape (http://www.inkscape.org/) -->
<svg width="325" height="295" shape-rendering="crispEdges" version="1.1" viewBox="0 0 85.99 78.052" xmlns="http://www.w3.org/2000/svg">
 <g>
  <path transform="scale(.26458)" d="m10 0-10 10v275l10 10h305l10-10 0.00195 0.00586v-275.01l-0.00195 0.0039062-10-10h-305z" fill="#b3b3b3" stroke-width="0"/>
  <rect x="43.656" y="41.01" width="18.521" height="1.3229" rx="1.5765e-6" ry=".62638" fill="#707070" stroke-width=".26458"/>
  <g fill="#808080" stroke-width=".26458">
   <rect x="44.979" y="42.333" width="18.521" height="1.3229" rx="1.5765e-6"/>
   <rect x="42.333" y="42.333" width="2.6458" height="1.3229" rx="1.5765e-6"/>
   <rect x="33.073" y="42.333" width="9.2604" height="1.3229" rx="1.5765e-6" ry=".65011"/>
  </g>
  <g fill="#404040" stroke-width=".26458">
   <rect x="33.073" y="42.333" width="5.2917" height="1.3229" rx="7.8823e-7"/>
   <rect x="38.365" y="42.333" width="3.9688" height="1.3229" rx="7.8823e-7"/>
   <rect x="42.333" y="42.333" width="1.3229" height="1.3229" rx="1.5765e-6"/>
  </g>
  <g>
   <g stroke-width="0">
    <rect x="30.427" y="39.688" width="14.552" height="1.3229" rx="3.7647e-7" fill="#595959"/>
    <rect x="31.75" y="41.01" width="11.906" height="1.3229" rx="3.7647e-7" fill="#595959"/>
    <rect x="30.427" y="38.365" width="14.552" height="1.3229" rx="3.7647e-7" fill="#4d4d4d"/>
    <rect x="44.979" y="39.688" width="18.521" height="1.3229" rx="1.5765e-6" ry=".65011" fill="#808080"/>
    <rect x="44.979" y="38.365" width="18.521" height="1.3229" rx="1.5765e-6" ry=".65011" fill="#666"/>
    <rect x="47.625" y="38.365" width="3.9688" height="1.3229" rx="3.7647e-7" fill="#4d4d4d"/>
    <rect x="56.885" y="38.365" width="3.9688" height="1.3229" rx="3.7647e-7" fill="#4d4d4d"/>
   </g>
   <path d="m62.177 7.9375v1.3229h1.3229v-1.3229zm1.3229 1.3229v2.6458h1.3229v-2.6458zm1.3229 2.6458v1.3229h1.3229v-1.3229zm1.3229 1.3229v2.6458h1.3229v-2.6458zm1.3229 2.6458v1.3229h1.3229v-1.3229zm1.3229 1.3229v2.6458h1.3229v-2.6458zm1.3229 2.6458v1.3229h1.3229v-1.3229zm1.3229 1.3229v2.6458h1.3229v-2.6458z" stroke-width=".26458"/>
  </g>
  <g fill="#141414" stroke-width=".26458">
   <path d="m59.531 9.2604v3.9688h1.3229v-3.9688zm0 3.9688h-1.3229v2.6458h1.3229v-1.3229z"/>
   <rect x="60.854" y="7.9375" width="1.3229" height="1.3229"/>
   <rect x="62.177" y="6.6146" width="1.3229" height="1.3229"/>
  </g>
  <g>
   <path transform="scale(.26458)" d="m230 10v5h10v-5h-5zm10 5v10h5v-10zm-10 0h-5v5h5zm-5 5h-5v5h5zm-5 5h-15v5h15zm-15 5h-10v5h10zm-10 5h-5v5h5zm0 5v5h10v-5zm10 5v5h5v-5zm5 5v10h5v-10zm5 10v5h5v-5zm0 5h-15v5h15zm-15 0v-5h-5v5zm-5-5v-5h-5v5zm-5-5v-15h-5v15z"/>
   <g stroke-width=".26458">
    <rect x="63.5" y="-6.6146" width="0" height="4.8456e-7" fill="#a40"/>
    <path d="m72.76 25.135v15.875h-3.9688v1.3229h5.2917v-17.198z"/>
    <rect x="68.792" y="42.333" width="6.6146" height="1.3229"/>
   </g>
  </g>
  <g fill="#483737" stroke-width=".26458">
   <path d="m74.083 25.135v17.198h5.2917v-1.3229h-3.9688v-15.875z"/>
   <rect x="75.406" y="42.333" width="3.9688" height="1.3229"/>
   <path d="m63.5 7.9375v1.3229h1.3229v-1.3229zm1.3229 1.3229v2.6458h1.3229v-2.6458zm1.3229 2.6458v1.3229h1.3229v-1.3229zm1.3229 1.3229v2.6458h1.3229v-2.6458zm1.3229 2.6458v1.3229h1.3229v-1.3229zm1.3229 1.3229v2.6458h1.3229v-2.6458zm1.3229 2.6458v1.3229h1.3229v-1.3229zm1.3229 1.3229v2.6458h1.3229v-2.6458z"/>
  </g>
  <g>
   <g stroke-width=".26458">
    <rect x="72.76" y="23.812" width="4.8127e-13" height="3.9688"/>
    <rect x="72.76" y="23.812" width="1.3229" height="1.3229" fill="#752f00"/>
    <rect x="74.083" y="23.812" width="1.3229" height="1.3229" fill="#943b00"/>
   </g>
   <path transform="scale(.26458)" d="m230 15v5h-5v5h-5v5h-15v5h-10v5h10v5h5v5h5v10h5v-10h5v-15h5v-5h5v-5h5v-10z" fill="#483737"/>
   <g stroke-width=".26458">
    <path d="m54.24 7.9375v1.3229h-2.6458v1.3229h2.6458v1.3229h1.3229v-2.6458h1.3229v-1.3229zm1.3229 3.9687v1.3229h1.3229v-1.3229z" fill="#303030"/>
    <path d="m50.271 10.583v0.65009 2.6686 0.65009h1.3229v0.67283 0.65009h1.3229v0.65009 0.02274 0.65009h3.9688v-0.65009-0.02274-0.65009h-1.3229v-1.9957-0.65009h-1.3229v-0.67283-0.65009h-2.6458v-0.67283-0.65009z" fill="#808080"/>
    <path d="m52.917 11.906v2.6458h2.6458v-1.3229h-1.3229v-1.3229z" fill="#fff"/>
    <path d="m10.583 55.562v1.3229h10.583v-1.3229h-9.2604z" fill="#3636e5"/>
    <path d="m3.9687 30.427v1.3229h6.6146v-1.3229zm0 1.3229h-1.3229v18.521h1.3229v-15.875zm0 18.521v1.3229h7.9375v-1.3229h-5.2917z" fill="#1c1cd4"/>
    <rect x="9.2604" y="55.563" width="1.3229" height="1.3229" fill="#3636e5"/>
    <rect x="7.9375" y="55.563" width="1.3229" height="1.3229" fill="#3636e5"/>
    <rect x="3.9688" y="34.396" width="1.3229" height="1.3229" fill="#2424ff"/>
    <rect x="5.2917" y="34.396" width="1.3229" height="1.3229" fill="#2424ff"/>
    <path d="m3.9687 31.75v18.521h6.6146v-18.521z" fill="#5c5cf2"/>
    <path d="m3.9687 33.073v17.198h2.6458v-2.6458h1.3229v-10.583h-1.3229v-2.6458h-1.3229v-1.3229z" fill="#3636e5"/>
    <rect x="7.9375" y="47.625" width="2.4064e-13" height="2.6458" fill="#3636e5"/>
    <rect x="7.9375" y="51.594" width="2.6458" height="3.9688"/>
    <path d="m10.583 56.885v1.3229h9.2604v-1.3229h-2.6458z" fill="#5757e5"/>
    <rect x="19.844" y="56.885" width="1.3229" height="1.3229" rx="3.3842e-7" ry=".66146" fill="#6161ff"/>
   </g>
  </g>
  <rect x="5.2917" y="33.073" width="1.3229" height="1.3229" fill-opacity="0" stroke-width=".26458"/>
  <rect x="3.9688" y="33.073" width="1.3229" height="1.3229" fill-opacity="0" stroke-width=".26458"/>
  <g>
   <path d="m6.6146 55.562c-2e-7 0 0 0.29501 0 0.66146s-2e-7 0.66146 0 0.66146h3.9688v-1.3229h-1.3229z" fill="#1c1cd4" stroke-width=".37418"/>
   <rect x="6.6146" y="56.885" width="3.9688" height="1.3229" fill="#3636e5" stroke-width=".32405"/>
   <g stroke-width=".26458">
    <rect x="21.167" y="55.563" width="1.3229" height="1.3229" fill="#3636e5"/>
    <rect x="21.167" y="59.531" width="1.3229" height="1.3229" fill="#1c1cd4"/>
    <rect x="21.167" y="56.885" width="1.3229" height="2.6458" fill="#6161ff"/>
   </g>
  </g>
  <rect x="22.49" y="56.885" width="2.6458" height="1.3229" fill-opacity="0" stroke-width=".26458"/>
  <rect x="22.49" y="55.562" width="1.3229" height="1.3229" rx="3.3842e-7" ry=".66146" fill="#3636e5" stroke-width=".26458"/>
  <rect x="23.813" y="55.562" width="3.9687" height="1.3229" rx="5.0763e-7" ry=".66146" fill="#3636e5" stroke-width=".32405"/>
  <g stroke-width=".26458">
   <path d="m15.875 59.531v3.9688h-1.3229v2.6458h-6.6146v5.2917h1.3229v-1.3229h1.3229v-1.3229h13.229v1.3229h1.3229v1.3229h1.3229v-5.2917h-6.6146v-1.3229h-1.3229v-5.2917z"/>
   <rect x="5.2917" y="71.438" width="3.9688" height="3.9688" rx="3.3842e-7" ry=".66146"/>
   <rect x="25.135" y="71.438" width="3.9688" height="3.9688" rx="3.3842e-7" ry=".66146"/>
   <rect x="18.521" y="63.5" width="1.3229" height="1.3229" rx="3.3842e-7" ry=".66146"/>
  </g>
  <g>
   <path d="m5.2917 56.885v2.6458h22.49v-1.3229h-21.167v-1.3229z" fill="#1717b2" stroke-width=".29156"/>
   <rect x="22.49" y="56.885" width="5.2917" height="1.3229" fill="#5757e5" stroke-width=".30551"/>
   <g stroke-width="0">
    <path transform="scale(.26458)" d="m35 165c-3e-6 0 0 1.0013 0 2.2441v5.5117c0 1.2429-3e-6 2.2441 0 2.2441h-5c-3e-6 0 0 1.0013 0 2.2441v2.7559h-5c-3e-6 0 0 1.0013 0 2.2441v5.5117c0 1.2429-3e-6 2.2441 0 2.2441h15c3e-6 0 0-1.0013 0-2.2441v-10.512c0-1.2429 3e-6 -2.2441 0-2.2441 3e-6 0 0-1.0013 0-2.2441v-5.5117c0-1.2429 3e-6 -2.2441 0-2.2441z" fill="#5252ff"/>
    <rect x="10.583" y="56.885" width="1.3229" height="1.3229" rx="1.5765e-6" ry=".59358" fill="#4747ff"/>
    <rect x="11.906" y="56.885" width="1.3229" height="1.3229" rx="1.5765e-6" ry=".59358" fill="#5252ff"/>
   </g>
  </g>
  <g>
   <g stroke-width=".26458">
    <rect x="25.135" y="30.427" width="6.0159e-14" height="2.6458" fill="#830000"/>
    <rect x="23.812" y="35.719" width="1.3229" height="1.3229" fill="#830000"/>
    <rect x="22.49" y="42.333" width="1.3229" height="1.3229" fill="#eb0000"/>
   </g>
   <rect x="10.583" y="39.688" width="1.3229" height="10.583" rx="1.5765e-6" ry=".59358" fill="#830000" stroke-width="0"/>
   <g fill="#b00000" stroke-width="0">
    <rect x="11.906" y="37.042" width="1.3229" height="11.906" rx="1.5765e-6" ry="1.3356"/>
    <rect x="11.906" y="48.948" width="6.6146" height="1.3229" rx="1.5765e-6" ry=".59358"/>
    <path transform="scale(.26458)" d="m95 180c-3e-6 0 0 1.0013 0 2.2441v0.51172c0 1.2429-3e-6 2.2441 0 2.2441h-5c-3e-6 0 0 1.0013 0 2.2441v0.51172c0 1.2429-3e-6 2.2441 0 2.2441h10v-2.2441-0.51172-2.2441-2.2441-0.51172-2.2441z"/>
   </g>
   <g stroke-width="0">
    <rect x="25.135" y="33.073" width="1.3229" height="2.6458" rx="1.5765e-6" ry=".59358" fill="#830000"/>
    <rect x="25.135" y="27.781" width="1.3229" height="1.3229" rx="1.5765e-6" ry=".59358" fill="#830000"/>
    <rect x="15.875" y="27.781" width="1.3229" height="1.3229" rx="1.5765e-6" ry=".59358" fill="#b80000"/>
   </g>
   <g fill="#830000" stroke-width="0">
    <rect x="13.229" y="27.781" width="2.6458" height="1.3229" rx="1.5765e-6" ry=".59358"/>
    <rect x="11.906" y="29.104" width="1.3229" height="1.3229" rx="1.5765e-6" ry=".59358"/>
    <rect x="10.583" y="30.427" width="1.3229" height="3.9688" rx="1.5765e-6" ry=".59358"/>
    <rect x="11.906" y="35.719" width="1.3229" height="1.3229" rx="1.5765e-6" ry=".59358"/>
    <rect x="13.229" y="37.042" width="1.3229" height="1.3229" rx="1.5765e-6" ry=".59358"/>
    <rect x="14.552" y="35.719" width="1.3229" height="1.3229" rx="1.5765e-6" ry=".59358"/>
    <rect x="15.875" y="35.719" width="1.3229" height="1.3229" rx="1.5765e-6" ry=".59358"/>
    <rect x="17.198" y="34.396" width="1.3229" height="1.3229" rx="1.5765e-6" ry=".59358"/>
    <rect x="15.875" y="33.073" width="1.3229" height="1.3229" rx="1.5765e-6" ry=".59358"/>
    <rect x="10.583" y="34.396" width="1.3229" height="6.6146" rx="1.5765e-6" ry=".59358"/>
   </g>
   <g stroke-width="0">
    <rect x="18.521" y="41.01" width="1.3229" height="1.3229" rx="1.5765e-6" ry=".59358" fill="#deaa87"/>
    <rect x="18.521" y="29.104" width="6.6146" height="6.6146" rx="1.5765e-6" ry=".59358" fill="#d90000"/>
    <path transform="scale(.26458)" d="m60 110c-3e-6 0 0 1.0013 0 2.2441v0.51172c0 1.2429-3e-6 2.2441 0 2.2441h-5c-3e-6 0 0 1.0013 0 2.2441v0.51172c0 1.2429-3e-6 2.2441 0 2.2441h-5c-3e-6 0 0 1.0013 0 2.2441v0.51172c0 1.2429-3e-6 2.2441 0 2.2441v5h-5c-3e-6 0 0 1.0013 0 2.2441v0.51172c0 1.2429-3e-6 2.2441 0 2.2441h20c3e-6 0 0-1.0013 0-2.2441v-0.51172c0-1.2429 3e-6 -2.2441 0-2.2441h-5c3e-6 0 0-1.0013 0-2.2441v-0.51172c0-1.2429 3e-6 -2.2441 0-2.2441h5c3e-6 0 0-1.0013 0-2.2441v-0.51172c0-1.2429 3e-6 -2.2441 0-2.2441 3e-6 0 0-1.0013 0-2.2441v-0.51172c0-1.2429 3e-6 -2.2441 0-2.2441h5c3e-6 0 0-1.0013 0-2.2441v-0.51172c0-1.2429 3e-6 -2.2441 0-2.2441z" fill="#d90000"/>
    <rect x="13.229" y="35.719" width="1.3229" height="1.3229" rx="1.5765e-6" ry=".59358" fill="#f00"/>
    <rect x="17.198" y="30.427" width="1.3229" height="3.9688" rx="1.5765e-6" ry=".59358" fill="#d90000"/>
    <rect x="25.135" y="29.104" width="1.3229" height="3.9688" rx="1.5765e-6" ry=".59358" fill="#d90000"/>
    <rect x="26.458" y="30.427" width="1.3229" height="5.2917" rx="1.5765e-6" ry=".59358" fill="#f00"/>
    <rect x="18.521" y="35.719" width="3.9688" height="1.3229" rx="1.5765e-6" ry=".59358" fill="#d90000"/>
    <rect x="19.844" y="37.042" width="1.3229" height="1.3229" rx="1.5765e-6" ry=".59358" fill="#f00"/>
   </g>
   <g fill="#d90000" stroke-width="0">
    <rect x="13.229" y="38.365" width="1.3229" height="10.583" rx="1.5765e-6" ry=".59358"/>
    <rect x="14.552" y="46.302" width="1.3229" height="2.6458" rx="1.5765e-6" ry=".59358"/>
    <rect x="15.875" y="47.625" width="2.6458" height="1.3229" rx="1.5765e-6" ry=".59358"/>
    <rect x="14.552" y="39.688" width="1.3229" height="2.6458" rx="1.5765e-6" ry=".59358"/>
    <rect x="15.875" y="41.01" width="1.3229" height="1.3229" rx="1.5765e-6" ry=".59358"/>
    <rect x="22.49" y="38.365" width="2.6458" height="10.583" rx="1.5765e-6" ry=".59358"/>
   </g>
   <rect x="25.135" y="37.042" width="1.3229" height="5.2917" rx="1.5765e-6" ry=".59358" fill="#b00000" stroke-width="0"/>
   <g fill="#830000" stroke-width="0">
    <rect x="26.458" y="35.719" width="1.3229" height="1.3229" rx="3.7647e-7"/>
    <rect x="27.781" y="34.396" width="1.3229" height="1.3229" rx="3.7647e-7"/>
    <rect x="27.781" y="35.719" width="1.3229" height="1.3229" rx="3.7647e-7"/>
    <rect x="26.458" y="27.781" width="1.3229" height="1.3229" rx="3.7647e-7"/>
   </g>
   <g fill="#b00000" stroke-width="0">
    <rect x="13.229" y="29.104" width="2.6458" height="1.3229" rx="3.7647e-7" ry=".66146"/>
    <rect x="11.906" y="30.427" width="1.3229" height="5.2917" rx="3.7647e-7" ry=".66146"/>
    <rect x="13.229" y="30.427" width="1.3229" height="1.3229" rx="3.7647e-7" ry=".66146"/>
    <rect x="13.229" y="35.719" width="1.3229" height="1.3229" rx="3.7647e-7" ry=".66146"/>
   </g>
   <rect x="11.906" y="50.271" width="1.3229" height="3.9688" fill="#483737" stroke-width=".26458"/>
   <path d="m13.229 50.271v3.9688h3.9688v1.3229h1.3229v-5.2917h-1.3229z" fill="#543f3f" stroke-width=".26458"/>
   <g fill="#483737">
    <rect x="14.552" y="54.24" width="2.6458" height="1.3229" stroke-width=".26458"/>
    <rect x="13.229" y="54.24" width="1.3229" height="1.3229" stroke-width=".26458"/>
    <path transform="scale(.26458)" d="m95 190v5h25v5h5v60h-15v-15h-5v20h30v-5h-5v-65h5v5h5v-10h-35z"/>
    <path d="m27.781 55.562v5.2917h1.3229v-5.2917z" stroke-width=".26458"/>
    <rect x="25.135" y="54.24" width="2.6458" height="1.3229" stroke-width=".26458"/>
   </g>
   <path d="m22.49 50.271v5.2917h2.6458v-1.3229h2.6458v1.3229h1.3229v5.2917h-1.3229v3.9688h1.3229v3.9688h3.9688v-15.875h-1.3229v-1.3229h-6.6146v-1.3229z" fill="#543f3f" stroke-width=".26458"/>
   <rect x="31.75" y="70.115" width="1.3229" height="1.5e-6" fill="#725555" stroke-width=".00028174"/>
   <path d="m33.073 51.594v1.3229h1.3229v15.875h1.3229v1.3229h1.3229v-17.198h-1.3229v-1.3229h-1.3229z" fill="#543f3f" stroke-width=".26458"/>
   <path d="m37.042 52.917v17.198h1.3229v-17.198z" fill="#483737" stroke-width=".25332"/>
   <rect x="34.396" y="67.469" width="4.8127e-13" height="2.6458" fill="#483737" stroke-width=".26458"/>
   <g fill="#5e5e00" stroke-width="0">
    <rect x="30.427" y="27.781" width="1.3229" height="1.3229" ry="1.9382e-6"/>
    <rect x="29.104" y="27.781" width="1.3229" height="5.2917" ry="1.9382e-6"/>
    <rect x="30.427" y="31.75" width="1.3229" height="1.3229" ry="1.9382e-6"/>
   </g>
   <path transform="scale(.26458)" d="m120 100c-1e-5 0 0 2.676 0 6v18c0 3.324-1e-5 6 0 6h10 10 5v-5-5-5-10-5h-5-10-10z" fill="#737300" stroke-width="0"/>
   <g fill="#660" stroke-width="0">
    <rect x="31.75" y="31.75" width="1.3229" height="1.3229" rx="1.5765e-6" ry="1.3229"/>
    <rect x="31.75" y="33.073" width="1.3229" height="1.3229" rx="1.5765e-6" ry="1.3229"/>
    <rect x="33.073" y="33.073" width="1.3229" height="1.3229" rx="1.5765e-6" ry="1.3229"/>
    <rect x="31.75" y="26.458" width="1.3229" height="1.3229" rx="1.5765e-6" ry="1.3229"/>
    <rect x="33.073" y="26.458" width="1.3229" height="1.3229" rx="1.5765e-6" ry="1.3229"/>
    <rect x="31.75" y="27.781" width="1.3229" height="1.3229" rx="1.5765e-6" ry="1.3229"/>
   </g>
   <g fill="#6e6e00" stroke-width="0">
    <rect x="31.75" y="29.104" width="1.3229" height="2.6458" rx="1.5765e-6" ry="1.3229"/>
    <rect x="33.073" y="27.781" width="1.3229" height="5.2917" ry="1.9382e-6"/>
    <rect x="34.396" y="26.458" width="1.3229" height="2.6458" ry="1.9382e-6"/>
    <rect x="35.719" y="26.458" width="2.6458" height="1.3229" ry="1.9382e-6"/>
    <rect x="34.396" y="33.073" width="1.3229" height="1.3229" ry="1.9382e-6"/>
   </g>
  </g>
  <g display="none">
   <path transform="scale(.26458)" d="m70 40v10h-35v30h5v20h5v5h5v5h10v5h30v-5h5v-5h5v-5h5v-10h5v-35h-5v-5h-10v-10zm5 20h5v15h-5zm25 0h5v15h-5z" fill="#fca"/>
   <path transform="scale(.26458)" d="m50 15v5h-10v5h-10v10h-5v40h5v10h5v10h5v-15h-5v-25h10v10h5v-10h15v-5h15v-5h10v5h15v5h5v-20h-5v-5h-5v-5h-10v-5h-10v-5zm-10 80v5h5v-5z"/>
   <g stroke-width=".26458">
    <rect x="19.844" y="18.521" width="1.3229" height="1.3229" fill="#fca"/>
    <rect x="26.458" y="18.521" width="1.3229" height="1.3229" fill="#fca"/>
    <rect x="19.844" y="15.875" width="1.3229" height="3.9688" rx="7.7209e-9" ry=".66146"/>
   </g>
   <g fill="#fca">
    <path transform="scale(.26458)" d="m40 145v15h15c-1e-6 0 0 1.115 0 2.5s-1e-6 2.5 0 2.5h10c1e-6 0 0-1.115 0-2.5s1e-6 -2.5 0-2.5h60v-15h-10v5h-10v-5h-15v5h-15v5h-20v-5h-5v-5z"/>
    <g stroke-width=".26458">
     <rect x="18.521" y="39.688" width="5.2917" height="1.3229"/>
     <rect x="22.49" y="39.688" width="2.6458" height="1.3229"/>
     <rect x="14.552" y="29.104" width="1.3229" height="1.3229"/>
    </g>
   </g>
   <path transform="scale(.26458)" d="m50 55v15h5v-10h5v-5h-5z" fill="#eabd9a"/>
   <path transform="scale(.26458)" d="m40 80v15h5v10h5v-25zm10 25v5h5v-5z" fill="#eabd9a"/>
   <g fill="#deaa87">
    <rect x="26.458" y="38.365" width="1.3229" height="1.3229" stroke-width=".26458"/>
    <rect x="23.813" y="38.365" width="1.3229" height="1.3229" stroke-width=".26458"/>
    <path transform="scale(.26458)" d="m55 150v5h30v-5h-25z"/>
    <path transform="scale(.26458)" d="m55 110v10h35v-5h-30v-5z"/>
   </g>
   <rect x="15.875" y="42.333" width="3.9688" height="1.3229" fill="#fca" stroke-width=".26458"/>
   <rect x="13.229" y="38.365" width="1.3229" height="1.3229" fill="#deaa87" stroke-width=".26458"/>
   <rect x="27.781" y="72.68" width="6.6146" height="2.7261" fill="#fca" stroke-width=".37981"/>
   <g fill="#deaa87" stroke-width=".26458">
    <rect x="30.427" y="38.365" width="2.6458" height="1.3229"/>
    <rect x="27.781" y="39.688" width="1.3229" height="2.6458"/>
    <rect x="29.104" y="39.688" width="1.3229" height="1.3229"/>
   </g>
  </g>
  <g>
   <g>
    <rect x="25.135" y="35.719" width="1.3229" height="1.3229" fill="#deaa87" stroke-width=".26458"/>
    <rect x="29.104" y="70.034" width="6.6146" height="2.7261" fill="#d9af93" stroke-width=".37981"/>
    <g stroke-width="0">
     <rect x="17.198" y="27.781" width="7.9375" height="1.3229" rx="1.5765e-6" ry=".57878" fill="#ffb787"/>
     <rect x="15.875" y="26.458" width="1.3229" height="1.3229" rx="1.5765e-6" ry=".59358" fill="#ce8669"/>
     <rect x="14.552" y="25.135" width="1.3229" height="1.3229" rx="1.5765e-6" ry=".59358" fill="#ce8669"/>
     <path transform="scale(.26458)" d="m45 80c-3e-6 0 0 1.0013 0 2.2441v0.51172c0 1.2429-3e-6 2.2441 0 2.2441-3e-6 0 0 1.0013 0 2.2441v0.51172c0 1.2429-3e-6 2.2441 0 2.2441h5c3e-6 0 0-1.0013 0-2.2441v-0.51172c0-1.2429 3e-6 -2.2441 0-2.2441 3e-6 0 0-1.0013 0-2.2441v-0.51172c0-1.2429 3e-6 -2.2441 0-2.2441zm5 10c-3e-6 0 0 1.0013 0 2.2441v0.51172c0 1.2429-3e-6 2.2441 0 2.2441h5c3e-6 0 0-1.0013 0-2.2441v-0.51172c0-1.2429 3e-6 -2.2441 0-2.2441z"/>
     <path d="m15.875 5.2917c-1e-6 0 0 0.26492 0 0.59376v0.13539c0 0.32884-1e-6 0.59376 0 0.59376h-2.6458v0.59376 0.13539 0.59376h-2.6458c-1e-6 0 0 0.26492 0 0.59376v0.13539c0 0.32884-1e-6 0.59376 0 0.59376-1e-6 0 0 0.26492 0 0.59376v0.13539c0 0.32884-1e-6 0.59376 0 0.59376h-1.3229c-7e-7 0 0 0.26492 0 0.59376v6.75c0 0.32884-7e-7 0.59376 0 0.59376-7e-7 0 0 0.26492 0 0.59376v0.13539c0 0.32884-7e-7 0.59376 0 0.59376h1.3229v0.72915c0 0.32884-1e-6 0.59376 0 0.59376h1.3229v-0.59376-5.4271-0.59376h2.6458v2.0521c0 0.32884-1e-6 0.59376 0 0.59376h1.3229v-0.59376-2.0521h2.6458c1e-6 0 0-0.26492 0-0.59376v-0.13539c0-0.32884 1e-6 -0.59376 0-0.59376h2.6458c1e-6 0 0-0.26492 0-0.59376v-0.13539c0-0.32884 1e-6 -0.59376 0-0.59376h3.9688c-1e-6 0 0 0.26492 0 0.59376v0.13539c0 0.32884-1e-6 0.59376 0 0.59376h2.6458v1.3229h1.3229v-3.9687h-1.3229v-1.3229h-1.3229v-0.59376-0.13539-0.59376h-1.3229c1e-6 0 0-0.26492 0-0.59376v-0.13539c0-0.32884 1e-6 -0.59376 0-0.59376h-1.3229c1e-6 0 0-0.26492 0-0.59376v-0.13539c0-0.32884 1e-6 -0.59376 0-0.59376h-1.3229z"/>
     <path transform="scale(.26458)" d="m80 45c-3e-6 0 0 1.0013 0 2.2441v0.51172c0 1.2429-3e-6 2.2441 0 2.2441h-10c-3e-6 0 0 1.0013 0 2.2441v2.7559h-10c-3e-6 0 0 1.0013 0 2.2441v7.7559h-5v-7.7559c0-1.2429 3e-6 -2.2441 0-2.2441h-10c-3e-6 0 0 1.0013 0 2.2441v20.512c0 1.2429-3e-6 2.2441 0 2.2441h5c-3e-6 0 0 1.0013 0 2.2441v5.5117c0 1.2429-3e-6 2.2441 0 2.2441h5c-3e-6 0 0 1.0013 0 2.2441v0.51172c0 1.2429-3e-6 2.2441 0 2.2441h5c-3e-6 0 0 1.0013 0 2.2441v0.51172c0 1.2429-3e-6 2.2441 0 2.2441h5c-3e-6 0 0 1.0013 0 2.2441v0.51172c0 1.2429-3e-6 2.2441 0 2.2441h30c3e-6 0 0-1.0013 0-2.2441v-0.51172c0-1.2429 3e-6 -2.2441 0-2.2441h5v-5h5v-10h5v-30h-5v-5h-10v-2.7559c0-1.2429 3e-6 -2.2441 0-2.2441h-10z" fill="#f2c3a3"/>
     <path d="m11.906 14.552v0.59376 5.4271 0.59376h1.3229c-1e-6 0 0 0.26492 0 0.59376v1.4583c0 0.32884-1e-6 0.59376 0 0.59376h1.3229v-0.59376-1.4583-0.59376-0.59376-0.72916h1.3229c1e-6 0 0-0.26492 0-0.59376v-1.4583c0-0.32884 1e-6 -0.59376 0-0.59376h-1.3229v-2.0521-0.59376zm2.6458 9.2604c-1e-6 0 0 0.26492 0 0.59376v0.13539c0 0.32884-1e-6 0.59376 0 0.59376h1.3229c1e-6 0 0-0.26492 0-0.59376v-0.13539c0-0.32884 1e-6 -0.59376 0-0.59376z" fill="#e0ae85"/>
     <rect x="15.875" y="27.781" width="1.3229" height="1.3229" rx="1.5765e-6" ry=".57878" fill="#ce8669"/>
    </g>
   </g>
   <g fill="#deaa87" stroke-width="0">
    <rect x="14.552" y="37.042" width="1.3229" height="1.3229" rx="1.5765e-6" ry=".59358"/>
    <rect x="14.552" y="38.365" width="1.3229" height="1.3229" rx="1.5765e-6" ry=".59358"/>
    <rect x="15.875" y="39.688" width="1.3229" height="1.3229" rx="1.5765e-6" ry=".59358"/>
    <rect x="17.198" y="41.01" width="1.3229" height="1.3229" rx="1.5765e-6" ry=".59358"/>
   </g>
   <g fill="#f2c3a3" stroke-width="0">
    <rect x="15.875" y="37.042" width="1.3229" height="1.3229" rx="1.5765e-6" ry=".59358"/>
    <rect x="15.875" y="38.365" width="1.3229" height="1.3229" rx="1.5765e-6" ry=".59358"/>
    <rect x="17.198" y="35.719" width="1.3229" height="5.2917" rx="1.5765e-6" ry=".59358"/>
    <rect x="18.521" y="37.042" width="1.3229" height="1.3229" rx="1.5765e-6" ry=".59358"/>
    <rect x="18.521" y="38.365" width="1.3229" height="1.3229" rx="1.5765e-6" ry=".59358"/>
    <rect x="18.521" y="39.688" width="1.3229" height="1.3229" rx="1.5765e-6" ry=".59358"/>
    <rect x="19.844" y="38.365" width="1.3229" height="1.3229" rx="1.5765e-6" ry=".59358"/>
    <path transform="scale(.26458)" d="m80 135c-3e-6 0 0 1.0013 0 2.2441v0.51172c0 1.2429-3e-6 2.2441 0 2.2441-3e-6 0 0 1.0013 0 2.2441v0.51172c0 1.2429-3e-6 2.2441 0 2.2441-3e-6 0 0 1.0013 0 2.2441v5.5117c0 1.2429-3e-6 2.2441 0 2.2441h10c3e-6 0 0-1.0013 0-2.2441v-0.51172c0-1.2429 3e-6 -2.2441 0-2.2441 3e-6 0 0-1.0013 0-2.2441v-5.5117c0-1.2429 3e-6 -2.2441 0-2.2441 3e-6 0 0-1.0013 0-2.2441v-0.51172c0-1.2429 3e-6 -2.2441 0-2.2441h-5z"/>
    <rect x="19.844" y="39.688" width="1.3229" height="2.6458" rx="1.5765e-6" ry=".59358"/>
    <path transform="scale(.26458)" d="m95 120c-3e-6 0 0 1.0013 0 2.2441v0.51172c0 1.2429-3e-6 2.2441 0 2.2441h-5c-3e-6 0 0 1.0013 0 2.2441v0.51172c0 1.2429-3e-6 2.2441 0 2.2441h-5c-3e-6 0 0 1.0013 0 2.2441v0.51172c0 1.2429-3e-6 2.2441 0 2.2441h5v7.7559c0 1.2429-3e-6 2.2441 0 2.2441h5c3e-6 0 0-1.0013 0-2.2441v-2.7559h5v-20z"/>
   </g>
   <rect x="19.844" y="37.042" width="1.3229" height="1.3229" rx="1.5765e-6" ry=".59358" fill="#deaa87" stroke-width="0"/>
   <g fill="#f2c3a3" stroke-width="0">
    <rect x="21.167" y="41.01" width="1.3229" height="1.3229" rx="1.5765e-6" ry=".59358"/>
    <path transform="scale(.26458)" d="m100 120c-3e-6 0 0 1.0013 0 2.2441v10.512c0 1.2429-3e-6 2.2441 0 2.2441h5v-2.2441-2.7559h5v-2.2441-0.51172-2.2441-2.2441-0.51172-2.2441h-5z"/>
    <path transform="scale(.26458)" d="m100 110c-3e-6 0 0 1.0013 0 2.2441v0.51172c0 1.2429-3e-6 2.2441 0 2.2441-3e-6 0 0 1.0013 0 2.2441v0.51172c0 1.2429-3e-6 2.2441 0 2.2441h10v2.2441 0.51172 2.2441h5v-2.2441-0.51172-2.2441-2.2441-0.51172-2.2441-2.2441-0.51172-2.2441h-10z"/>
   </g>
   <g stroke-width="0">
    <rect x="21.167" y="15.875" width="1.3229" height="2.6458" rx="1.5765e-6" ry=".59358"/>
    <rect x="26.458" y="15.875" width="1.3229" height="2.6458" rx="1.5765e-6" ry=".59358"/>
    <rect x="26.458" y="37.042" width="2.6458" height="1.3229" rx="3.7647e-7" fill="#f2c3a3"/>
    <rect x="26.458" y="38.365" width="2.6458" height="1.3229" rx="3.7647e-7" fill="#f2c3a3"/>
   </g>
   <g fill="#ffc6a5" stroke-width="0">
    <rect x="29.104" y="38.365" width="1.3229" height="1.3229" rx="3.7647e-7"/>
    <rect x="30.427" y="37.042" width="1.3229" height="1.3229" rx="3.7647e-7"/>
    <rect x="31.75" y="35.719" width="1.3229" height="1.3229" rx="3.7647e-7"/>
    <rect x="33.073" y="34.396" width="1.3229" height="1.3229" rx="3.7647e-7"/>
   </g>
   <g fill="#f2c3a3" stroke-width="0">
    <rect x="31.75" y="37.042" width="1.3229" height="1.3229" rx="3.7647e-7"/>
    <rect x="33.073" y="35.719" width="1.3229" height="2.6458" rx="3.7647e-7"/>
    <rect x="34.396" y="34.396" width="1.3229" height="2.6458" rx="3.7647e-7"/>
    <rect x="26.458" y="39.688" width="2.6458" height="1.3229" rx="3.7647e-7"/>
    <rect x="27.781" y="41.01" width="1.3229" height="1.3229" rx="3.7647e-7"/>
   </g>
   <rect x="26.458" y="41.01" width="1.3229" height="1.3229" rx="3.7647e-7" fill="#ffc6a5" stroke-width="0"/>
   <g fill="#f2c3a3" stroke-width="0">
    <rect x="29.104" y="39.688" width="1.3229" height="1.3229" rx="3.7647e-7"/>
    <rect x="29.104" y="41.01" width="1.3229" height="1.3229" rx="3.7647e-7"/>
    <rect x="35.719" y="34.396" width="1.3229" height="1.3229" rx="3.7647e-7"/>
    <rect x="37.042" y="34.396" width="2.6458" height="1.3229" rx="3.7647e-7"/>
    <rect x="38.365" y="31.75" width="1.3229" height="2.6458" rx="3.7647e-7"/>
   </g>
   <rect x="14.552" y="13.229" width="1.3229" height="1.3229" rx="3.7647e-7" fill="#808080" stroke-width="0"/>
   <g fill="#deaa87" stroke-width="0">
    <rect x="21.167" y="35.719" width="1.3229" height="1.3229" rx="1.5765e-6" ry=".59358"/>
    <rect x="22.49" y="34.396" width="1.3229" height="1.3229" rx="1.5765e-6" ry=".59358"/>
    <rect x="23.812" y="33.073" width="1.3229" height="1.3229" rx="1.5765e-6" ry=".59358"/>
    <rect x="26.458" y="29.104" width="1.3229" height="2.6458" rx="1.5765e-6" ry="1.3229"/>
    <rect x="22.49" y="39.688" width="1.3229" height="1.3229" rx="1.5765e-6" ry="1.3229"/>
    <rect x="23.812" y="37.042" width="1.3229" height="1.3229" rx="1.5765e-6" ry="1.3229"/>
    <rect x="26.458" y="34.396" width="1.3229" height="1.3229" rx="1.5765e-6" ry="1.3229"/>
    <rect x="27.781" y="33.073" width="1.3229" height="1.3229" rx="1.5765e-6" ry="1.3229"/>
    <rect x="27.781" y="37.042" width="1.3229" height="1.3229" rx="1.5765e-6" ry="1.3229"/>
    <rect x="29.104" y="38.365" width="1.3229" height="1.3229" rx="1.5765e-6" ry="1.3229"/>
    <rect x="30.427" y="37.042" width="1.3229" height="1.3229" rx="1.5765e-6" ry="1.3229"/>
    <rect x="31.75" y="35.719" width="1.3229" height="1.3229" rx="1.5765e-6" ry="1.3229"/>
    <rect x="33.073" y="34.396" width="1.3229" height="1.3229" rx="1.5765e-6" ry="1.3229"/>
    <rect x="26.458" y="41.01" width="1.3229" height="1.3229" rx="1.5765e-6" ry="1.3229"/>
   </g>
  </g>
  <g display="none">
   <path d="m17.12 12.568v2.3812h-8.171v7.1438h1.1673v4.7625h1.1673v1.1906h1.1673v1.1906h2.3346v1.1906h7.0037v-1.1906h1.1673v-1.1906h1.1673v-1.1906h1.1673v-2.3812h1.1673v-8.3344h-1.1673v-1.1906h-2.3346v-2.3812zm1.1673 4.7625h1.1673v3.5719h-1.1673zm5.8364 0h1.1673v3.5719h-1.1673z" fill="#fca" stroke-width=".23578"/>
   <g stroke-width=".22975">
    <path d="m14.184 8.1266v1.1339h-2.3277v1.1339h-2.3277v2.2677h-1.1638v9.0709h1.1638v2.2677h1.1638v2.2677h1.1638v-3.4016h-1.1638v-5.6693h2.3277v2.2677h1.1638v-2.2677h3.4915v-1.1339h3.4915v-1.1339h2.3277v1.1339h3.4915v1.1339h1.1638v-4.5354h-1.1638v-1.1339h-1.1638v-1.1339h-2.3277v-1.1339h-2.3277v-1.1339zm-2.3277 18.142v1.1339h1.1638v-1.1339z"/>
    <rect x="20.003" y="20.599" width="1.1638" height="1.1339" fill="#fca"/>
    <rect x="25.822" y="20.599" width="1.1638" height="1.1339" fill="#fca"/>
    <rect x="20.003" y="18.331" width="1.1638" height="3.4016" rx="6.7925e-9" ry=".56693"/>
   </g>
   <g fill="#fca">
    <path transform="scale(.26458)" d="m40 145v15h15c-1e-6 0 0 1.115 0 2.5s-1e-6 2.5 0 2.5h10c1e-6 0 0-1.115 0-2.5s1e-6 -2.5 0-2.5h60v-15h-10v5h-10v-5h-15v5h-15v5h-20v-5h-5v-5z"/>
    <rect x="18.521" y="39.688" width="5.2917" height="1.3229" stroke-width=".26458"/>
    <rect x="22.49" y="39.688" width="2.6458" height="1.3229" stroke-width=".26458"/>
    <rect x="13.618" y="29.236" width="1.1673" height="1.1906" stroke-width=".23578"/>
   </g>
   <path d="m14.184 17.197v3.4016h1.1638v-2.2677h1.1638v-1.1339h-1.1638z" fill="#eabd9a" stroke-width=".22975"/>
   <path d="m11.856 22.867v3.4016h1.1638v2.2677h1.1638v-5.6693zm2.3277 5.6693v1.1339h1.1638v-1.1339z" fill="#eabd9a" stroke-width=".22975"/>
   <g fill="#deaa87">
    <rect x="26.458" y="38.365" width="1.3229" height="1.3229" stroke-width=".26458"/>
    <rect x="23.813" y="38.365" width="1.3229" height="1.3229" stroke-width=".26458"/>
    <path transform="scale(.26458)" d="m55 150v5h30v-5h-25z"/>
    <path transform="scale(.26458)" d="m55 110v10h35v-5h-30v-5z"/>
   </g>
   <rect x="15.875" y="42.333" width="3.9688" height="1.3229" fill="#fca" stroke-width=".26458"/>
   <rect x="13.229" y="38.365" width="1.3229" height="1.3229" fill="#deaa87" stroke-width=".26458"/>
   <rect x="27.781" y="72.68" width="6.6146" height="2.7261" fill="#fca" stroke-width=".37981"/>
   <g fill="#deaa87" stroke-width=".26458">
    <rect x="30.427" y="38.365" width="2.6458" height="1.3229"/>
    <rect x="27.781" y="39.688" width="1.3229" height="2.6458"/>
    <rect x="29.104" y="39.688" width="1.3229" height="1.3229"/>
   </g>
  </g>
  <g>
   <g fill="#005252" stroke-width=".26458">
    <rect x="39.688" y="74.083" width="2.6458" height="1.3229"/>
    <path d="m27.781 72.76v2.6458h11.906v-1.3229h-10.583v-1.3229z"/>
    <path d="m35.719 68.792v3.9688h1.3229v-2.6458h1.3229v-1.3229h-1.3229zm2.6458 1.3229v1.3229h1.3229v-1.3229z"/>
   </g>
   <path d="m37.042 71.437v1.3229h-7.9375v1.3229h11.906v-1.3229h-2.6458v-1.3229z" fill="#007878" stroke-width=".251"/>
   <rect x="37.042" y="70.115" width="1.3229" height="1.3229" fill="#006b6b" stroke-width=".26458"/>
   <rect x="42.333" y="71.438" width="1.3229" height="1.3229" fill="#005252" stroke-width=".18709"/>
   <g stroke-width=".26458">
    <rect x="43.656" y="72.76" width="1.3229" height="2.6458" fill="#005252"/>
    <rect x="38.365" y="71.438" width="2.6458" height="1.3229" fill="#006b6b"/>
    <rect x="39.688" y="70.115" width="1.3229" height="1.3229" fill="#005252"/>
    <rect x="41.01" y="71.438" width="1.3229" height="1.3229" fill="#005252"/>
    <rect x="42.333" y="72.76" width="1.3229" height="1.3229" fill="#006b6b"/>
    <rect x="42.333" y="74.083" width="1.3229" height="1.3229" fill="#005252"/>
    <rect x="41.01" y="72.76" width="2.6458" height="1.3229" fill="#006b6b"/>
   </g>
  </g>
  <g stroke-width="0">
   <path transform="scale(.26458)" d="m35 55v5 5 10h30v-10-5-5h-30z" fill="#595959"/>
   <g fill="#404040">
    <rect x="10.583" y="9.2604" width="2.6458" height="7.9375" rx="3.7647e-7" ry="1.5442e-8"/>
    <rect x="13.229" y="7.9375" width="2.6458" height="1.3229" rx="3.7647e-7" ry="1.5442e-8"/>
    <rect x="13.229" y="6.6146" width="2.6458" height="1.3229" rx="3.7647e-7" ry="1.5442e-8"/>
   </g>
   <g fill="#595959">
    <rect x="13.229" y="9.2604" width="1.3229" height="7.9375" rx="3.7647e-7" ry="1.5442e-8"/>
    <rect x="15.875" y="6.6146" width="1.3229" height="2.6458" rx="3.7647e-7" ry="1.5442e-8"/>
    <rect x="17.198" y="5.2917" width="6.6146" height="1.3229" rx="4.7058e-7" ry="1.5442e-8"/>
   </g>
   <g>
    <rect x="14.552" y="5.2917" width="2.6458" height="1.3229" rx="3.7647e-7" ry="1.5442e-8" fill="#404040"/>
    <rect x="14.552" y="13.229" width="1.3229" height="1.3229" rx="3.7647e-7" ry="1.5442e-8" fill="#595959"/>
    <path transform="scale(.26458)" d="m55 55v10h-5v5h-5v10h5 5 5v-25h-5z" fill="#737373"/>
   </g>
   <rect x="15.875" y="14.552" width="1.3229" height="5.2917" rx="3.7647e-7" fill="#808080"/>
   <path transform="scale(.26458)" d="m60 55v5 15h5v-15-5h-5z" fill="#666"/>
   <path transform="scale(.26458)" d="m40 70v5 5h20v-5h-15v-5h-5z" fill="#666"/>
  </g>
  <g display="none" stroke-width="0">
   <g fill="#003cb3">
    <rect x="9.2604" y="14.552" width="7.9375" height="1.3229" rx="3.7647e-7" ry="1.5442e-8"/>
    <rect x="9.2604" y="15.875" width="7.9375" height="1.3229" rx="3.7647e-7"/>
    <rect x="9.2604" y="17.198" width="7.9375" height="2.6458" rx="3.7647e-7"/>
    <rect x="10.583" y="19.844" width="5.2917" height="1.3229" rx="3.7647e-7"/>
    <rect x="10.583" y="13.229" width="5.2917" height="1.3229" rx="3.7647e-7" ry="1.5442e-8"/>
   </g>
   <g fill="#001eb3">
    <rect x="10.583" y="9.2604" width="2.6458" height="7.9375" rx="3.7647e-7" ry="1.5442e-8"/>
    <rect x="13.229" y="7.9375" width="2.6458" height="1.3229" rx="3.7647e-7" ry="1.5442e-8"/>
    <rect x="13.229" y="6.6146" width="2.6458" height="1.3229" rx="3.7647e-7" ry="1.5442e-8"/>
   </g>
   <g fill="#2944cc">
    <rect x="13.229" y="9.2604" width="1.3229" height="7.9375" rx="3.7647e-7" ry="1.5442e-8"/>
    <rect x="15.875" y="6.6146" width="1.3229" height="2.6458" rx="3.7647e-7" ry="1.5442e-8"/>
    <rect x="17.198" y="5.2917" width="5.2917" height="1.3229" rx="3.7647e-7" ry="1.5442e-8"/>
   </g>
   <rect x="14.552" y="5.2917" width="2.6458" height="1.3229" rx="3.7647e-7" ry="1.5442e-8" fill="#001eb3"/>
  </g>
  <g>
   <g stroke-width=".26458">
    <path d="m14.552 42.333c-1e-6 0 0 0.28993 0 0.65009v0.02273c0 0.36016-1e-6 0.65009 0 0.65009-1e-6 0 0 0.28993 0 0.65009v1.3457c0 0.36016-1e-6 0.65009 0 0.65009h1.3229v0.67283c0 0.36016-1e-6 0.65009 0 0.65009h31.75v-0.65009-0.02273-0.65009h1.3229v-2.6458-0.65009-0.02273-0.6501h-3.9688z" fill="#644b2b"/>
    <path d="m47.625 46.302v1.3229h34.396v-1.3229h-29.104z" fill="#5e4829"/>
    <rect x="56.885" y="66.146" width="1.9251e-12" height="14.552" fill="#2b1100"/>
   </g>
   <rect x="48.948" y="42.333" width="34.396" height="3.9688" rx="2.1573e-6" ry=".65011" fill="#735531" stroke-width=".30951"/>
  </g>
  <g fill="#4e3b22">
   <rect x="18.521" y="47.625" width="3.9688" height="27.781" rx="1.5765e-6" ry=".59358" stroke-width=".25282"/>
   <rect x="39.688" y="47.625" width="3.9688" height="27.781" rx="1.5765e-6" ry=".59358" stroke-width=".25282"/>
   <g stroke-width=".26458">
    <path d="m47.625 42.333v0.59376 0.13539 0.59376h-1.3229c-1e-6 0 0 0.26492 0 0.59376v0.13539c0 0.32884-1e-6 0.59376 0 0.59376h-3.9688c-1e-6 0 0 0.26492 0 0.59376v0.13539c0 0.32884-1e-6 0.59376 0 0.59376h6.6146v-0.59376-1.4583-0.59376-0.59376-0.13539-0.59376z"/>
    <rect x="15.875" y="46.302" width="2.6458" height="1.3229" rx="1.051e-6" ry=".59358"/>
    <rect x="18.521" y="46.302" width="29.104" height="1.3229" rx="1.051e-6" ry=".59358"/>
    <path d="m14.552 42.333c-1e-6 0 0 0.26492 0 0.59376v2.7812c0 0.32884-1e-6 0.59376 0 0.59376h1.3229c1e-6 0 0-0.26492 0-0.59376v-2.0521h1.3229c1e-6 0 0-0.26492 0-0.59376v-0.13539c0-0.32884 1e-6 -0.59376 0-0.59376h-1.3229z"/>
   </g>
  </g>
  <g fill="#644b2b" stroke-width=".26458">
   <rect x="22.49" y="47.625" width="1.3229" height="27.781" rx="1.5765e-6" ry=".59358"/>
   <rect x="43.656" y="47.625" width="1.3229" height="27.781" rx="1.5765e-6" ry=".59358"/>
   <rect x="58.208" y="47.625" width="1.3229" height="27.781" rx="1.5765e-6" ry=".59358"/>
   <rect x="78.052" y="47.625" width="1.3229" height="27.781" rx="1.5765e-6" ry=".59358"/>
  </g>
  <rect x="74.083" y="47.625" width="3.9688" height="27.781" rx="1.051e-6" ry=".59358" fill="#594326" stroke-width=".26458"/>
  <rect x="54.24" y="47.625" width="3.9688" height="27.781" rx="1.051e-6" ry=".59358" fill="#594326" stroke-width=".26458"/>
 </g>
</svg>
